<?xml version="1.0" standalone="no"?>
<!DOCTYPE svg PUBLIC "-//W3C//DTD SVG 1.1//EN" "http://www.w3.org/Graphics/SVG/1.1/DTD/svg11.dtd" >
<svg>
<metadata>
Created by FontForge 20090914 at Thu Feb 23 18:34:11 2012
 By ffonts
Copyright (c) Ray Larabie, 2000. All rights reserved. Freeware. revised 2003 www.larabiefonts.com
</metadata>
<defs>
<font id="BlueHighway" horiz-adv-x="405" >
  <font-face 
    font-family="Blue Highway"
    font-weight="400"
    font-stretch="normal"
    units-per-em="1000"
    panose-1="2 1 6 3 2 2 2 2 3 3"
    ascent="800"
    descent="-200"
    x-height="427"
    cap-height="554"
    bbox="-37.1211 -187 699 704"
    underline-thickness="20"
    underline-position="-113"
    unicode-range="U+0020-U+2122"
  />
<missing-glyph horiz-adv-x="500" 
 />
    <glyph glyph-name=".notdef" horiz-adv-x="500" 
 />
    <glyph glyph-name=".null" horiz-adv-x="0" 
 />
    <glyph glyph-name="nonmarkingreturn" horiz-adv-x="500" 
 />
    <glyph glyph-name="visiblespace" unicode=" " horiz-adv-x="232" 
 />
    <glyph glyph-name="visiblespace" unicode="&#xa0;" horiz-adv-x="232" 
 />
    <glyph glyph-name="exclam" unicode="!" horiz-adv-x="178" 
d="M89 0q-20 0 -32.5 16.5t-12.5 39.5t12.5 39.5t32.5 16.5q17 0 31 -16.5t14 -39.5t-14 -39.5t-31 -16.5zM72 168l-25 157v229h82v-229l-20 -157h-37z" />
    <glyph glyph-name="quotedbl" unicode="&#x22;" horiz-adv-x="310" 
d="M57 342l-13 240h67l-15 -240h-39zM211 342l-16 240h70l-15 -240h-39z" />
    <glyph glyph-name="numbersign" unicode="#" horiz-adv-x="494" 
d="M178 201h111l33 155h-113zM337 202h93v-63h-104l-30 -139h-47l28 139h-111l-29 -139h-48l28 139h-89v63h102l30 153h-95v63h109l25 136h50l-26 -136h110l28 136h48l-27 -136h84v-63h-97z" />
    <glyph glyph-name="dollar" unicode="$" horiz-adv-x="406" 
d="M243 128q46 22 46 67q0 34 -46 50v-117zM161 429q-40 -16 -40 -47q0 -25 40 -37v84zM243 0h-82v49q-38 5 -69.5 13.5t-57.5 21.5l26 76q20 -11 45 -20t56 -14v136q-129 37 -129 133q0 83 129 109v50h82v-47q33 -4 60 -12t46 -21l-23 -78q-22 15 -83 29v-94
q130 -30 130 -136q0 -122 -130 -144v-51z" />
    <glyph glyph-name="percent" unicode="%" horiz-adv-x="484" 
d="M373 157q-19 0 -33.5 -17.5t-14.5 -41.5q0 -23 14.5 -40t33.5 -17q20 0 33.5 17t13.5 40q0 24 -13.5 41.5t-33.5 17.5zM116 516q-18 0 -33.5 -17.5t-15.5 -41.5q0 -23 15.5 -40t33.5 -17q20 0 33.5 17t13.5 40q0 24 -13.5 41.5t-33.5 17.5zM371 1q-34 0 -56 28t-22 70
q0 40 22.5 68.5t55.5 28.5q16 0 30.5 -7.5t25 -21t17 -31t6.5 -37.5q0 -42 -23 -70t-56 -28zM116 1l197 552h48l-195 -552h-50zM116 358q-34 0 -57.5 27.5t-23.5 69.5t23.5 70t57.5 28t57.5 -28t23.5 -70q0 -20 -6.5 -37.5t-17.5 -31t-26 -21t-31 -7.5z" />
    <glyph glyph-name="ampersand" unicode="&#x26;" horiz-adv-x="563" 
d="M161 230q-25 -25 -25 -56q0 -18 7.5 -35t20 -30.5t28 -21.5t30.5 -8q51 0 81 50l-119 120zM366 56q-76 -67 -151 -67q-39 0 -71 11.5t-55 33t-36 52t-13 68.5q0 30 6.5 50t18 35.5t28.5 29.5l38 32q-32 34 -50 68.5t-18 71.5q0 36 15.5 59.5t38.5 38t51 20.5t54 6
q139 0 144 -117l-90 -32q-7 70 -61 70q-57 0 -57 -61q0 -34 87 -121q3 -4 30.5 -31l81.5 -79q23 44 27 116h91v-28q0 -45 -12 -84.5t-34 -74.5l107 -122h-121z" />
    <glyph glyph-name="quotesingle" unicode="'" horiz-adv-x="159" 
d="M52 409q33 4 38 57q-30 0 -44 16t-14 39q0 24 14 40t34 16q18 0 31 -16t13 -40q0 -111 -72 -129v17z" />
    <glyph glyph-name="parenleft" unicode="(" horiz-adv-x="233" 
d="M130 -143q-100 169 -100 360t100 360h72q-55 -75 -82.5 -166t-27.5 -194q0 -185 111 -360h-73z" />
    <glyph glyph-name="parenright" unicode=")" horiz-adv-x="232" 
d="M29 -143q30 46 51 88.5t34.5 85.5t19.5 88.5t6 97.5q0 107 -27.5 192.5t-83.5 167.5h72q51 -85 75.5 -174t24.5 -186t-24.5 -186t-75.5 -174h-72z" />
    <glyph glyph-name="asterisk" unicode="*" horiz-adv-x="460" 
d="M256 312v-202h-52v197l-147 -118l-31 53l162 113l-161 114l30 54l143 -120v198h53v-198l149 119l31 -54l-163 -112l164 -114l-31 -53z" />
    <glyph glyph-name="plus" unicode="+" horiz-adv-x="264" 
d="M166 170h-67v88h-73v82h73v89h67v-89h71v-82h-71v-88z" />
    <glyph glyph-name="comma" unicode="," horiz-adv-x="158" 
d="M48 -56q20 5 29.5 17.5t11.5 39.5l-13 -1q-20 0 -31.5 16.5t-11.5 39.5t12.5 39.5t32.5 16.5q17 0 31 -16.5t14 -39.5t-4.5 -44.5t-13.5 -38.5t-23.5 -28t-33.5 -13v12z" />
    <glyph glyph-name="hyphen" unicode="-" horiz-adv-x="240" 
d="M47 340h144v-82h-144v82z" />
    <glyph glyph-name="period" unicode="." horiz-adv-x="166" 
d="M82 0q-20 0 -32 16.5t-12 39.5t12 39.5t32 16.5q17 0 31 -16.5t14 -39.5t-14 -39.5t-31 -16.5z" />
    <glyph glyph-name="slash" unicode="/" horiz-adv-x="311" 
d="M19 -40l210 650h63l-211 -650h-62z" />
    <glyph glyph-name="zero" unicode="0" horiz-adv-x="482" 
d="M241 476q-63 0 -92 -49.5t-29 -149.5q0 -103 30.5 -150.5t90.5 -47.5t90.5 47.5t30.5 150.5q0 100 -27.5 149.5t-93.5 49.5zM241 -4q-97 0 -149.5 72.5t-53.5 208.5q0 133 53 207t150 73q100 0 151 -72.5t51 -207.5q0 -133 -51.5 -207.5t-150.5 -73.5z" />
    <glyph glyph-name="one" unicode="1" horiz-adv-x="205" 
d="M74 427h-50v77q60 1 63 51h69v-555h-82v427z" />
    <glyph glyph-name="two" unicode="2" horiz-adv-x="407" 
d="M41 44q0 49 9 85t25.5 63.5t40 49t52.5 42.5q19 14 39.5 23t37 20t27 27.5t10.5 46.5q0 69 -75 69q-34 0 -59.5 -11.5t-47.5 -46.5l-55 72q29 38 69.5 56t97.5 18q33 0 61 -8.5t48.5 -27t32 -47.5t11.5 -70v-2q0 -39 -11.5 -67t-31 -49t-44.5 -37.5t-52 -31.5
q-42 -23 -66.5 -57t-24.5 -79h230v-82h-324v44z" />
    <glyph glyph-name="three" unicode="3" horiz-adv-x="387" 
d="M186 -3q-109 0 -152 79l70 50q22 -46 83 -46q79 0 81 83q-2 95 -86 95h-33v82h33q59 0 59 74q-2 58 -57 63q-49 2 -59 -34l-68 28q31 88 126 87q132 1 133 -138q0 -80 -61 -110q95 -41 96 -146q-1 -165 -165 -167z" />
    <glyph glyph-name="four" unicode="4" horiz-adv-x="421" 
d="M102 224h144v220zM328 -1h-82v143h-225v96l210 316h97v-330h60v-82h-60v-143z" />
    <glyph glyph-name="five" unicode="5" horiz-adv-x="420" 
d="M196 -7q-48 0 -86 8.5t-70 30.5l45 84q29 -22 56 -30.5t53 -8.5q48 0 78.5 27t30.5 78q0 22 -7.5 41.5t-20.5 34t-29 23t-34 8.5q-22 0 -43 -9t-40 -30l-81 34q3 31 5.5 59.5t5.5 59.5t5.5 67.5l5.5 83.5h279v-82h-208l-11 -129q20 17 41.5 23.5t43.5 6.5
q78 0 122.5 -50.5t44.5 -141.5q0 -47 -14 -82t-39 -58.5t-59 -35.5t-74 -12z" />
    <glyph glyph-name="six" unicode="6" horiz-adv-x="397" 
d="M203 283q-40 0 -63.5 -28t-23.5 -76t22 -75t61 -27q40 0 65.5 26.5t25.5 74.5t-24 76.5t-63 28.5zM194 -5q-73 0 -116 57.5t-43 160.5q0 68 17 129.5t48 108.5t73 75.5t92 30.5l13 -78q-57 -5 -102 -49t-59 -129q15 26 45 43t57 17q32 0 58.5 -13t46 -36t30 -56t10.5 -72
q0 -94 -46 -141.5t-124 -47.5z" />
    <glyph glyph-name="seven" unicode="7" horiz-adv-x="389" 
d="M110 0q4 71 16 139t31.5 129t47 113t62.5 91h-234v82h331v-95q-36 -32 -66.5 -82t-52 -110.5t-34 -129t-13.5 -137.5h-88z" />
    <glyph glyph-name="eight" unicode="8" horiz-adv-x="407" 
d="M203 264q-37 0 -60.5 -23t-23.5 -71q0 -43 24 -66.5t60 -23.5q38 0 61.5 22.5t23.5 67.5q0 94 -85 94zM203 480q-29 0 -44 -17.5t-15 -47.5q0 -29 16.5 -45.5t42.5 -16.5t41.5 17.5t15.5 44.5q0 30 -13.5 47.5t-43.5 17.5zM202 -3q-75 0 -120.5 45t-45.5 126q0 27 6.5 52
t18 45t27 34t33.5 19q-27 20 -37.5 47.5t-10.5 59.5q0 61 34 97t94 36q63 0 98.5 -32.5t35.5 -101.5q0 -32 -11.5 -60.5t-43.5 -48.5q22 -5 39 -19t28 -34t17 -44.5t6 -49.5q0 -81 -46 -126t-122 -45z" />
    <glyph glyph-name="nine" unicode="9" horiz-adv-x="399" 
d="M193 268q40 0 63.5 28t23.5 76t-22 75.5t-61 27.5t-63.5 -27t-24.5 -75t23 -76.5t61 -28.5zM204 558q75 0 117 -58.5t42 -161.5q0 -68 -17.5 -129.5t-48 -108.5t-73 -75.5t-93.5 -30.5l-10 78q27 2 53 14.5t47.5 35t36.5 54.5t21 74q-13 -26 -42.5 -43t-58.5 -17
q-33 0 -59.5 13t-46 36t-30 56t-10.5 72q0 94 45.5 142.5t126.5 48.5z" />
    <glyph glyph-name="colon" unicode=":" horiz-adv-x="175" 
d="M88 0q-20 0 -33.5 16.5t-13.5 39.5t13.5 39.5t33.5 16.5q18 0 31 -16.5t13 -39.5t-13 -39.5t-31 -16.5zM88 301q-20 0 -33.5 16t-13.5 40q0 23 13.5 39t33.5 16q18 0 31 -16t13 -39q0 -24 -13 -40t-31 -16z" />
    <glyph glyph-name="semicolon" unicode=";" horiz-adv-x="161" 
d="M47 -56q22 7 33 20.5t12 36.5l-17 -1q-20 0 -32 16.5t-12 39.5t12.5 39.5t33.5 16.5q18 0 32 -16.5t14 -39.5q0 -52 -19 -85.5t-57 -38.5v12zM77 301q-22 0 -34 16t-12 40q0 23 12.5 39t33.5 16q18 0 32 -16t14 -39q0 -24 -13.5 -40t-32.5 -16z" />
    <glyph glyph-name="less" unicode="&#x3c;" horiz-adv-x="445" 
d="M264 114v-7q0 -13 -11 -13q-8 0 -12 6l-218 201l218 202q4 6 12 6q11 0 11 -13v-7l-19 -108h175v-160h-175z" />
    <glyph glyph-name="equal" unicode="=" horiz-adv-x="289" 
d="M17 258h283v-83h-283v83zM17 382h283v-82h-283v82z" />
    <glyph glyph-name="greater" unicode="&#x3e;" horiz-adv-x="445" 
d="M203 100q-6 -6 -13 -6q-10 0 -10 13l18 114h-173v160h173l-18 115q0 13 10 13q7 0 13 -6l219 -202z" />
    <glyph glyph-name="question" unicode="?" horiz-adv-x="350" 
d="M159 0q-19 0 -33 16.5t-14 39.5t14 39.5t33 16.5q20 0 32.5 -16.5t12.5 -39.5t-12.5 -39.5t-32.5 -16.5zM29 498q25 34 62.5 47.5t88.5 13.5q64 0 103.5 -36.5t39.5 -105.5q0 -26 -7 -46.5t-18.5 -38t-26.5 -32.5l-31 -30q-15 -14 -22.5 -26t-11 -24.5t-4.5 -27.5t-2 -35
h-83v7q0 51 16.5 91.5t47.5 68.5l27 26t17 20.5t8.5 20.5t2.5 26q0 28 -15.5 42.5t-42.5 14.5q-33 0 -60 -9.5t-47 -34.5z" />
    <glyph glyph-name="at" unicode="@" horiz-adv-x="482" 
d="M290 235q0 3 -6 6.5t-14 6.5t-15 5t-10 2q-50 0 -50 -47q0 -20 12 -32t35 -12q5 0 13.5 2.5t16 7t13 10t5.5 11.5v40zM184 354q12 11 27 17.5t36 6.5q35 0 57 -20.5t22 -62.5v-111q0 -44 38 -44q24 0 35.5 14.5t15.5 34.5t3 41t-1 35q0 109 -42.5 158t-127.5 49
q-38 0 -70.5 -14.5t-56.5 -42t-38 -67.5t-14 -91q2 -102 38 -163t112 -61v-30q-48 0 -82 20.5t-55.5 55.5t-31.5 81t-10 97q0 59 16.5 104.5t45 77t66 47.5t80.5 16q100 0 149.5 -60.5t49.5 -175.5q0 -17 -0.5 -43.5t-7.5 -52t-24.5 -44t-50.5 -18.5q-24 0 -41.5 9.5
t-23.5 34.5q-14 -15 -33.5 -20.5t-40.5 -5.5q-26 0 -45.5 21.5t-19.5 60.5q0 83 78 83q13 0 29.5 -4.5t27.5 -15.5q2 38 -12.5 53.5t-41.5 15.5q-11 0 -20 -2.5t-16 -14.5z" />
    <glyph glyph-name="A" unicode="A" horiz-adv-x="451" 
d="M148 195h154l-78 275zM283 554l163 -554h-88l-29 101h-207l-28 -101h-89l163 554h115z" />
    <glyph glyph-name="B" unicode="B" horiz-adv-x="447" 
d="M129 82h115q33 0 54.5 22t21.5 60t-21 58.5t-53 20.5h-2h-115v-161zM227 325q25 0 43.5 22.5t18.5 52.5q0 31 -18 51.5t-44 20.5h-98v-147h98zM225 554q30 0 56 -9.5t46 -28.5t31.5 -46.5t11.5 -63.5t-13.5 -62t-36.5 -44q17 -3 33.5 -13t29 -26.5t20.5 -39.5t8 -53
q0 -78 -47.5 -123t-135.5 -45h-181v554h178z" />
    <glyph glyph-name="C" unicode="C" horiz-adv-x="482" 
d="M370 411q-22 29 -48.5 42.5t-60.5 13.5q-63 0 -100 -51.5t-37 -138.5q0 -41 10.5 -76t29 -60.5t44.5 -40t56 -14.5q29 0 58 14.5t48 34.5l71 -48q-61 -94 -180 -94q-49 0 -90 21.5t-71 59.5t-46.5 90t-16.5 113t15.5 112.5t44.5 89t70.5 59t93.5 21.5q127 0 185 -100z
" />
    <glyph glyph-name="D" unicode="D" horiz-adv-x="497" 
d="M129 472v-389h55q42 0 77 14.5t61 40.5t40.5 62t14.5 78q0 43 -14.5 79t-40.5 61.5t-61 39.5t-77 14h-55zM47 0v554h155q57 0 104.5 -20.5t82 -57.5t53.5 -87t19 -110q0 -65 -20 -117t-55.5 -88t-83.5 -55t-105 -19h-150z" />
    <glyph glyph-name="E" unicode="E" horiz-adv-x="385" 
d="M47 554h295v-82h-213v-147h133v-82h-133v-161h213v-82h-295v554z" />
    <glyph glyph-name="F" unicode="F" horiz-adv-x="361" 
d="M129 325h137v-82h-137v-243h-82v554h295v-82h-213v-147z" />
    <glyph glyph-name="G" unicode="G" horiz-adv-x="510" 
d="M261 -6q-50 0 -91 21.5t-70.5 59.5t-45.5 89.5t-16 112.5q0 132 57.5 208t165.5 76q63 0 109 -23.5t78 -78.5l-80 -54q-15 30 -46.5 48.5t-60.5 18.5q-66 0 -101 -47.5t-35 -147.5q0 -43 9.5 -79t27.5 -62.5t43 -41.5t56 -15q45 0 78.5 30t36.5 87h-107v82h206v-36
q0 -48 -16.5 -92.5t-45 -79t-68 -55.5t-84.5 -21z" />
    <glyph glyph-name="H" unicode="H" horiz-adv-x="472" 
d="M342 243h-213v-243h-82v554h82v-229h213v229h82v-554h-82v243z" />
    <glyph glyph-name="I" unicode="I" horiz-adv-x="179" 
d="M47 554h82v-554h-82v554z" />
    <glyph glyph-name="J" unicode="J" horiz-adv-x="302" 
d="M260 554v-353q0 -36 -12 -70.5t-33.5 -62t-51.5 -46.5t-66 -23q-2 -1 -9 -1h-10h-22q-11 0 -20.5 1t-14.5 3v80q21 -2 39.5 -2.5t34.5 3.5q40 9 61.5 44t21.5 111v316h82z" />
    <glyph glyph-name="K" unicode="K" horiz-adv-x="475" 
d="M209 232l-80 -119v-113h-82v554h82v-298l196 298h99l-161 -240l173 -314h-94z" />
    <glyph glyph-name="L" unicode="L" horiz-adv-x="378" 
d="M47 554h82v-472h231v-82h-313v554z" />
    <glyph glyph-name="M" unicode="M" horiz-adv-x="554" 
d="M424 404l-143 -404l-152 405v-405h-82v554h113l121 -335l119 335h106v-554h-82v404z" />
    <glyph glyph-name="N" unicode="N" horiz-adv-x="474" 
d="M126 412v-412h-82v554h102l201 -395v395h82v-554h-94z" />
    <glyph glyph-name="O" unicode="O" horiz-adv-x="521" 
d="M261 476q-63 0 -102 -49.5t-39 -149.5q0 -51 11 -88t30 -61.5t44.5 -36.5t55.5 -12q60 0 100.5 48.5t40.5 149.5q0 100 -37.5 149.5t-103.5 49.5zM261 -4q-94 0 -159 74q-62 74 -64 207q0 133 63 207q65 75 160 73q98 0 160 -74t62 -206q0 -131 -62 -208
q-61 -75 -160 -73z" />
    <glyph glyph-name="P" unicode="P" horiz-adv-x="436" 
d="M129 472v-172h119q83 0 85 83q-2 89 -85 89h-119zM129 218v-218h-82v554h195q78 3 125 -42t48 -126q0 -81 -47.5 -124.5t-125.5 -43.5h-113z" />
    <glyph glyph-name="Q" unicode="Q" horiz-adv-x="520" 
d="M258 476q-63 0 -102 -49.5t-39 -149.5q0 -51 11 -88t30 -61.5t44.5 -36.5t55.5 -12q28 0 45 7l-73 99l61 52l74 -102q34 49 34 142q0 100 -37.5 149.5t-103.5 49.5zM258 -4q-94 0 -159 74q-63 75 -64 207q0 133 63 207q64 75 160 73q98 0 160 -74t62 -206
q0 -131 -62 -208l-3 -3l43 -58l-61 -49l-43 58q-44 -21 -96 -21z" />
    <glyph glyph-name="R" unicode="R" horiz-adv-x="457" 
d="M129 472v-172h119q83 0 85 83q-2 89 -85 89h-119zM226 218h-97v-218h-82v554h195q78 3 125 -42t48 -126q0 -82 -48 -125q-24 -23 -57 -33l107 -228h-88z" />
    <glyph glyph-name="S" unicode="S" horiz-adv-x="416" 
d="M202 -4q-45 0 -85 10t-78 33l28 83q26 -19 59.5 -31t73.5 -12q46 0 71 19.5t25 61.5q0 30 -26.5 49.5t-68.5 42.5q-23 13 -51.5 25.5t-53 30t-41 43.5t-16.5 67q0 64 46.5 102t124.5 38q42 0 79.5 -8.5t64.5 -29.5l-23 -84q-25 19 -52.5 28t-69.5 9q-35 0 -61.5 -11
t-26.5 -40q0 -18 12 -32.5t32 -28t45 -26.5t51 -28q51 -29 84 -66t33 -82q0 -88 -48 -125.5t-128 -37.5z" />
    <glyph glyph-name="T" unicode="T" horiz-adv-x="437" 
d="M265 0h-91v472h-146v82h381v-82h-144v-472z" />
    <glyph glyph-name="U" unicode="U" horiz-adv-x="466" 
d="M236 -2q-91 0 -141.5 59t-50.5 168v329h82v-349q0 -69 29.5 -97t80.5 -28q49 0 76 28t27 97v349h83v-328q0 -109 -47.5 -168.5t-138.5 -59.5z" />
    <glyph glyph-name="V" unicode="V" horiz-adv-x="481" 
d="M181 0l-163 554h88l134 -470l130 470h89l-163 -554h-115z" />
    <glyph glyph-name="W" unicode="W" horiz-adv-x="728" 
d="M158 0l-133 554h88l103 -469l100 469h90l103 -469l100 469h90l-133 -554h-115l-89 370l-89 -370h-115z" />
    <glyph glyph-name="X" unicode="X" horiz-adv-x="506" 
d="M300 275l164 -275h-96l-115 195l-115 -195h-96l163 275l-164 279h94l118 -199l118 199h94z" />
    <glyph glyph-name="Y" unicode="Y" horiz-adv-x="472" 
d="M283 0h-93v210l-163 344h93l117 -253l116 253h92l-162 -342v-212z" />
    <glyph glyph-name="Z" unicode="Z" horiz-adv-x="438" 
d="M45 89l254 383h-254v82h347v-91l-255 -381h256v-82h-348v89z" />
    <glyph glyph-name="bracketleft" unicode="[" horiz-adv-x="226" 
d="M47 577h154v-61h-100v-591h100v-61h-154v713z" />
    <glyph glyph-name="backslash" unicode="\" horiz-adv-x="330" 
d="M18 577h65l228 -690h-63z" />
    <glyph glyph-name="bracketright" unicode="]" horiz-adv-x="228" 
d="M25 -75h98v591h-98v61h154v-713h-154v61z" />
    <glyph glyph-name="asciicircum" unicode="^" horiz-adv-x="390" 
d="M353 325q-5 0 -6 1l-88 22v-212h-129v212l-88 -22q-1 -1 -5 -1q-13 0 -13 12q0 9 6 17l164 268l165 -268q7 -7 7 -17q0 -12 -13 -12z" />
    <glyph glyph-name="underscore" unicode="_" horiz-adv-x="536" 
d="M47 -13h441v-109h-441v109z" />
    <glyph glyph-name="grave" unicode="`" horiz-adv-x="156" 
d="M14 669h56l50 -89h-29z" />
    <glyph glyph-name="a" unicode="a" horiz-adv-x="391" 
d="M263 178q0 8 -6.5 15.5t-16.5 13t-21 8.5t-21 3q-85 0 -85 -71q0 -30 22.5 -48.5t53.5 -18.5q10 0 22.5 3t24 8.5t19.5 13.5t8 19v54zM264 37q-10 -15 -36 -28t-63 -13q-28 0 -52.5 10t-43 29.5t-29 47t-10.5 62.5q0 72 41.5 110t108.5 38q24 0 45 -5.5t38 -24.5
q0 27 -5.5 43.5t-15.5 25.5t-25.5 12.5t-34.5 3.5q-23 0 -39.5 -7.5t-29.5 -18.5l-37 63q20 22 50 34t67 12q69 0 111 -41.5t42 -113.5v-276h-82v37z" />
    <glyph glyph-name="b" unicode="b" horiz-adv-x="402" 
d="M129 148q2 -10 9 -22.5t17.5 -23t24 -18t29.5 -7.5q22 0 39.5 10.5t29.5 28t18 41.5t6 51q0 67 -21 104t-75 37q-30 0 -49.5 -22.5t-27.5 -55.5v-123zM47 530l82 36v-174q13 17 40 28.5t57 11.5q73 0 113.5 -59t40.5 -165q0 -45 -11 -84t-32 -68t-50.5 -45.5t-66.5 -16.5
q-28 0 -50.5 11t-40.5 43v-48h-82v530z" />
    <glyph glyph-name="c" unicode="c" horiz-adv-x="358" 
d="M201 -8q-41 0 -74 16t-55.5 45.5t-34.5 71t-12 92.5q0 47 13 87t36.5 69t55.5 45t71 16q38 0 67.5 -15t49.5 -39l-62 -53q-8 11 -20 17t-35 6q-43 0 -67.5 -37t-24.5 -97q0 -139 92 -139q37 0 61 26l68 -48q-51 -63 -129 -63z" />
    <glyph glyph-name="d" unicode="d" horiz-adv-x="409" 
d="M279 268q-6 24 -27.5 46.5t-52.5 22.5q-51 0 -72.5 -34t-21.5 -101q0 -54 23.5 -88t68.5 -34q27 0 51.5 16.5t30.5 50.5v121zM279 45q-15 -18 -37.5 -34t-54.5 -16q-36 0 -66 16t-51.5 44t-34 66.5t-12.5 82.5q0 47 12 88.5t33.5 72t50.5 48t64 17.5q32 0 56 -8.5
t40 -31.5v140l82 36v-565h-82v44z" />
    <glyph glyph-name="e" unicode="e" 
d="M205 358q-40 0 -65 -31.5t-27 -77.5h177q-2 46 -25 77.5t-60 31.5zM113 165q0 -20 8.5 -36t22 -27t30 -17t33.5 -6q22 0 38.5 6t28.5 21l55 -51q-24 -32 -55.5 -46t-69.5 -14q-88 1 -131.5 56.5t-43.5 158.5q0 52 12 94.5t35 72.5t56 46t74 16q76 0 122 -56.5t45 -165.5
q0 -12 -0.5 -24.5t-0.5 -25.5h-259v-2z" />
    <glyph glyph-name="f" unicode="f" horiz-adv-x="253" 
d="M148 0h-75v345h-45v82h45q0 72 28 112t86 40q19 0 40 -3v-75q-24 4 -40 3.5t-25.5 -8.5t-13.5 -24.5t-4 -44.5h84v-82h-80v-345z" />
    <glyph glyph-name="g" unicode="g" horiz-adv-x="399" 
d="M274 268q-1 22 -8 38t-17 25.5t-21.5 14t-21.5 4.5q-51 0 -73.5 -34t-22.5 -97q0 -66 20 -103t62 -37q38 0 60 19t22 54v116zM183 -97q89 21 89 130q-13 -19 -31.5 -28t-57.5 -9q-41 0 -70.5 17.5t-49 48t-29 71t-9.5 87.5q0 43 12.5 81.5t34 67t51 45t64.5 16.5
q27 0 48.5 -8t38.5 -28v33h82v-362q0 -48 -10.5 -90.5t-31 -75.5t-51 -55.5t-70.5 -29.5z" />
    <glyph glyph-name="h" unicode="h" horiz-adv-x="391" 
d="M279 266q0 17 -6.5 32t-17 26.5t-24.5 18t-28 6.5t-27.5 -6t-24 -17.5t-17 -26.5t-6.5 -33v-266h-82v519l82 52v-204q31 64 103 64q27 0 51 -11.5t41.5 -32t27.5 -49.5t10 -63v-275h-82v266z" />
    <glyph glyph-name="i" unicode="i" horiz-adv-x="177" 
d="M47 427h82v-427h-82v427zM88 471q-21 0 -33.5 16t-12.5 39q0 24 12 40t34 16q19 0 32.5 -16t13.5 -40q0 -23 -14 -39t-32 -16z" />
    <glyph glyph-name="j" unicode="j" horiz-adv-x="169" 
d="M-25 -111q20 6 33.5 20.5t21 34.5t10.5 44t3 50v389h81v-436q0 -23 -6.5 -50t-21 -52.5t-37.5 -46t-56 -29.5zM84 471q-18 0 -32 16t-14 39q0 24 14 40t32 16q21 0 33.5 -16t12.5 -40q0 -23 -13 -39t-33 -16z" />
    <glyph glyph-name="k" unicode="k" horiz-adv-x="385" 
d="M174 199l-45 -54v-145h-82v522l82 49v-302l115 139h105l-116 -144l132 -264h-92z" />
    <glyph glyph-name="l" unicode="l" horiz-adv-x="177" 
d="M45 519l82 52v-571h-82v519z" />
    <glyph glyph-name="m" unicode="m" horiz-adv-x="641" 
d="M513 266q0 84 -73 84q-79 0 -79 -85v-265h-82v264q0 47 -21 65.5t-51 18.5q-33 0 -55.5 -20t-22.5 -62v-266h-82v425h82v-49q16 29 43.5 42.5t65.5 13.5q52 0 93 -44q15 20 43.5 32t73.5 12q69 0 108 -41t39 -110v-281h-82v266z" />
    <glyph glyph-name="n" unicode="n" horiz-adv-x="407" 
d="M280 265q0 42 -19 63.5t-53 21.5t-56.5 -21.5t-22.5 -63.5v-265h-82v427h82v-53q15 29 42.5 43t64.5 14q57 0 91.5 -40.5t34.5 -109.5v-281h-82v265z" />
    <glyph glyph-name="o" unicode="o" 
d="M203 349q-43 0 -66 -38t-23 -99q0 -133 90 -133q89 0 89 133q0 137 -90 137zM203 -5q-81 0 -126 57.5t-45 160.5q0 46 12.5 86.5t35 70t54 46.5t69.5 17q39 0 70.5 -16.5t54 -46t35 -70t12.5 -87.5q0 -99 -45 -158.5t-127 -59.5z" />
    <glyph glyph-name="p" unicode="p" horiz-adv-x="402" 
d="M209 350q-13 0 -27 -7t-26 -18t-19.5 -25t-7.5 -27v-118q0 -12 7 -26t18.5 -25t26.5 -18.5t30 -7.5q25 0 42.5 11t28 30.5t15 46t4.5 57.5q0 27 -4.5 50.5t-15.5 40.5t-28.5 26.5t-43.5 9.5zM213 -6q-20 0 -43.5 8.5t-40.5 30.5v-159l-82 -54v607h82v-48q16 26 40 40
t52 14q40 0 70 -15.5t49.5 -43t29 -65t9.5 -82.5q0 -50 -10 -92.5t-30 -74t-51.5 -49t-74.5 -17.5z" />
    <glyph glyph-name="q" unicode="q" horiz-adv-x="404" 
d="M195 350q-26 0 -43.5 -9.5t-28.5 -26.5t-15.5 -40.5t-4.5 -50.5q0 -31 4.5 -57.5t15 -46t27.5 -30.5t43 -11q15 0 30 7.5t26.5 18.5t18.5 25t7 26v118q0 13 -7.5 27t-19.5 25t-26 18t-27 7zM191 -6q-43 0 -74.5 17.5t-51.5 49t-30 74t-10 92.5q0 45 9.5 82.5t29 65t49 43
t70.5 15.5q28 0 52 -14t40 -40v48h82v-553l-82 -52v211q-17 -22 -40.5 -30.5t-43.5 -8.5z" />
    <glyph glyph-name="r" unicode="r" horiz-adv-x="269" 
d="M219 337q-20 11 -30 11q-32 0 -46 -24.5t-14 -60.5v-263h-82v427h82v-51q7 26 28.5 40t48.5 14q24 0 41 -11z" />
    <glyph glyph-name="s" unicode="s" horiz-adv-x="347" 
d="M57 107q21 -17 50.5 -23t57.5 -6q31 0 51.5 11.5t20.5 37.5q0 19 -14.5 33.5t-49.5 20.5q-28 5 -54 12.5t-46 22t-32 36.5t-12 57q0 32 11.5 55.5t32.5 38.5t49.5 22t62.5 7q67 0 112 -33l-25 -85q-20 20 -43 27t-52 7q-23 0 -42 -5.5t-22 -28.5q-3 -24 23 -36t71 -22
q51 -11 81.5 -39.5t30.5 -84.5q0 -37 -13 -63t-35.5 -42.5t-53 -24t-64.5 -7.5q-29 0 -61.5 8.5t-64.5 27.5z" />
    <glyph glyph-name="t" unicode="t" horiz-adv-x="274" 
d="M231 1q-19 -4 -31 -5.5t-26 -1.5q-48 0 -74.5 36t-26.5 102v213h-45v82h45v77l82 46v-123h77v-82h-77v-183q0 -27 2.5 -43.5t8 -25.5t15 -12.5t23.5 -3.5q9 0 19 3t21 7z" />
    <glyph glyph-name="u" unicode="u" horiz-adv-x="409" 
d="M279 52q-16 -30 -45 -43.5t-63 -13.5q-57 0 -91.5 40.5t-34.5 109.5v282h82v-254q0 -42 18 -68t53 -26q34 0 57.5 26t23.5 68v254h82v-427h-82v52z" />
    <glyph glyph-name="v" unicode="v" horiz-adv-x="382" 
d="M146 0l-122 427h87l82 -319l80 319h87l-121 -427h-93z" />
    <glyph glyph-name="w" unicode="w" horiz-adv-x="628" 
d="M151 0l-114 427h88l73 -312l71 312h90l73 -312l71 312h88l-113 -427h-93l-71 268l-70 -268h-93z" />
    <glyph glyph-name="x" unicode="x" horiz-adv-x="352" 
d="M225 213l122 -213h-94l-73 131l-73 -131h-94l122 213l-123 214h95l73 -132l73 132h95z" />
    <glyph glyph-name="y" unicode="y" horiz-adv-x="393" 
d="M108 -180l51 178l-127 429h87l82 -319l80 319h87l-174 -607h-86z" />
    <glyph glyph-name="z" unicode="z" horiz-adv-x="369" 
d="M46 73l182 272h-173v82h279v-72l-183 -273h186v-82h-291v73z" />
    <glyph glyph-name="braceleft" unicode="{" horiz-adv-x="362" 
d="M259 -136q-116 0 -116 132v56q0 73 -28.5 103.5t-95.5 32.5v64q67 3 95.5 34t28.5 102v57q0 132 116 132h69v-55h-3q-34 0 -55.5 -4.5t-34 -20t-17 -45.5t-4.5 -81q0 -47 -19.5 -77.5t-70.5 -59.5v-28q90 -50 90 -136q0 -51 4 -81t16 -45.5t33.5 -20t56.5 -4.5h4v-55h-69
z" />
    <glyph glyph-name="bar" unicode="|" horiz-adv-x="129" 
d="M47 577h23v-713h-23v713z" />
    <glyph glyph-name="braceright" unicode="}" horiz-adv-x="363" 
d="M220 -4q0 -132 -114 -132h-73v55h5q34 0 56 4.5t34 20t16.5 45.5t4.5 81q0 83 93 136v28q-52 29 -72.5 60t-20.5 77q0 51 -4.5 81t-16.5 45.5t-34 20t-56 4.5h-5v55h73q114 0 114 -132v-57q0 -70 29 -101.5t95 -34.5v-64q-66 0 -95 -30t-29 -106v-56z" />
    <glyph glyph-name="asciitilde" unicode="~" horiz-adv-x="446" 
d="M211 170q-34 20 -65.5 10.5t-57.5 -33.5q-14 14 -29.5 26.5l-31.5 24.5q16 17 39.5 32t50 23.5t52.5 9t47 -11.5q39 -22 75.5 -23t65.5 33l32 -23.5l33 -23.5q-18 -22 -45 -36.5t-57 -20t-59 -2.5t-50 15z" />
    <glyph glyph-name="Euro" unicode="&#x20ac;" horiz-adv-x="448" 
d="M50 372q22 89 77 138q52 49 134 49q95 0 150 -55l-48 -84q-20 22 -42 33q-26 14 -60 14q-40 0 -72 -23q-31 -23 -47 -72h193l-35 -62h-175q-1 -2 -1 -12v-50h141l-36 -63h-85q18 -53 49 -75q31 -24 71 -24q25 0 58 14q18 9 32 20l59 -68q-59 -59 -152 -59q-77 0 -133 50
q-55 49 -78 142h-43v63h30v62l-30 2v60h43z" />
    <glyph glyph-name="quotesinglbase" unicode="&#x201a;" horiz-adv-x="141" 
d="M30 -68l36 240h55l-67 -240h-24z" />
    <glyph glyph-name="florin" unicode="&#x192;" horiz-adv-x="390" 
d="M75 531q-8 5 -8 13t6 11.5t11 4.5l270 47l-38 -332q-1 -8 -4.5 -14t-9.5 -6q-7 0 -11 10l-49 92l-122 -150l-92 113l122 150z" />
    <glyph glyph-name="quotedblbase" unicode="&#x201e;" horiz-adv-x="268" 
d="M167 -56q20 5 29.5 17.5t11.5 39.5l-13 -1q-20 0 -31.5 16.5t-11.5 39.5t12.5 39.5t32.5 16.5q17 0 31 -16.5t14 -39.5t-4.5 -44.5t-13.5 -38.5t-23.5 -28t-33.5 -13v12zM48 -56q20 5 29.5 17.5t11.5 39.5l-13 -1q-20 0 -31.5 16.5t-11.5 39.5t12.5 39.5t32.5 16.5
q17 0 31 -16.5t14 -39.5t-4.5 -44.5t-13.5 -38.5t-23.5 -28t-33.5 -13v12z" />
    <glyph glyph-name="ellipsis" unicode="&#x2026;" horiz-adv-x="546" 
d="M89 0q-20 0 -32 16.5t-12 39.5t12 39.5t32 16.5q17 0 31 -16.5t14 -39.5t-14 -39.5t-31 -16.5zM272 0q-20 0 -32.5 16.5t-12.5 39.5t12.5 39.5t32.5 16.5q19 0 32.5 -16.5t13.5 -39.5t-13.5 -39.5t-32.5 -16.5zM455 0q-20 0 -32.5 16.5t-12.5 39.5t12.5 39.5t32.5 16.5
q18 0 32 -16.5t14 -39.5t-14 -39.5t-32 -16.5z" />
    <glyph glyph-name="dagger" unicode="&#x2020;" horiz-adv-x="390" 
d="M150 325l-122 150l92 113l122 -150l49 92q4 10 11 10q6 0 9.5 -6t4.5 -14l38 -332l-270 47q-7 1 -12 5t-5 11q0 8 8 13z" />
    <glyph glyph-name="daggerdbl" unicode="&#x2021;" horiz-adv-x="390" 
d="M314 241q8 -5 8 -13q0 -13 -17 -16l-269 -48l37 333q1 8 4.5 14t9.5 6q3 0 9 -11l50 -91l123 150l93 -113l-124 -150z" />
    <glyph glyph-name="circumflex" unicode="&#x2c6;" horiz-adv-x="270" 
d="M134 643l-52 -62h-50l74 88h55l76 -88h-51z" />
    <glyph glyph-name="perthousand" unicode="&#x2030;" horiz-adv-x="445" 
d="M264 114v-7q0 -13 -11 -13q-8 0 -12 6l-218 201l218 202q4 6 12 6q11 0 11 -13v-7l-19 -108h175v-160h-175z" />
    <glyph glyph-name="Scaron" unicode="&#x160;" horiz-adv-x="416" 
d="M202 -4q-45 0 -85 10t-78 33l28 83q26 -19 59.5 -31t73.5 -12q46 0 71 19.5t25 61.5q0 30 -26.5 49.5t-68.5 42.5q-23 13 -51.5 25.5t-53 30t-41 43.5t-16.5 67q0 64 46.5 102t124.5 38q42 0 79.5 -8.5t64.5 -29.5l-23 -84q-25 19 -52.5 28t-69.5 9q-35 0 -61.5 -11
t-26.5 -40q0 -18 12 -32.5t32 -28t45 -26.5t51 -28q51 -29 84 -66t33 -82q0 -88 -48 -125.5t-128 -37.5zM210 607l52 62h50l-74 -88h-55l-76 88h51z" />
    <glyph glyph-name="guilsinglleft" unicode="&#x2039;" horiz-adv-x="230" 
d="M81 301l112 -52v-50l-148 74v55l148 76v-51z" />
    <glyph glyph-name="OE" unicode="&#x152;" horiz-adv-x="634" 
d="M243 476q-63 0 -92 -49.5t-29 -149.5q0 -103 30.5 -150.5t90.5 -47.5t90.5 47.5t30.5 150.5q0 100 -27.5 149.5t-93.5 49.5zM365 37q-50 -42 -122 -41q-97 0 -149.5 72.5t-53.5 208.5q0 133 53 207t150 73q74 0 122 -42v39h225v-82h-143v-147h113v-82h-113v-161h143v-82
h-225v37z" />
    <glyph glyph-name="Zcaron" unicode="&#x17d;" horiz-adv-x="438" 
d="M45 89l254 383h-254v82h347v-91l-255 -381h256v-82h-348v89zM210 607l52 62h50l-74 -88h-55l-76 88h51z" />
    <glyph glyph-name="quoteleft" unicode="&#x2018;" horiz-adv-x="159" 
d="M80 435q-20 0 -32 16.5t-12 39.5q0 115 71 123v-15q-18 -4 -27.5 -14.5t-11.5 -38.5l15 1q16 0 29.5 -17.5t13.5 -38.5q0 -23 -14 -39.5t-32 -16.5z" />
    <glyph glyph-name="quoteright" unicode="&#x2019;" horiz-adv-x="160" 
d="M52 413q19 4 29 14.5t12 38.5h-13q-21 0 -34.5 15.5t-13.5 39.5t13.5 40t34.5 16q18 0 31 -16t13 -40q0 -51 -18 -84.5t-54 -38.5v15z" />
    <glyph glyph-name="quotedblleft" unicode="&#x201c;" horiz-adv-x="312" 
d="M89 435q-21 0 -34 16.5t-13 39.5q0 51 18.5 84.5t54.5 38.5v-15q-18 -4 -28 -14.5t-12 -38.5l16 1q16 0 29.5 -16.5t13.5 -39.5t-13.5 -39.5t-31.5 -16.5zM224 435q-18 0 -31.5 16.5t-13.5 39.5q0 51 19 84.5t54 38.5v-15q-19 -4 -29 -14.5t-12 -38.5l16 1
q17 0 30.5 -17.5t13.5 -38.5q0 -23 -13.5 -39.5t-33.5 -16.5z" />
    <glyph glyph-name="quotedblright" unicode="&#x201d;" horiz-adv-x="311" 
d="M61 413q18 4 27.5 14.5t11.5 38.5h-12q-19 0 -33.5 15.5t-14.5 39.5t14.5 40t33.5 16q20 0 32 -16t12 -40q0 -51 -18 -84.5t-53 -38.5v15zM198 413q17 4 26.5 14.5t11.5 38.5h-13q-18 0 -31.5 15.5t-13.5 39.5t13.5 40t31.5 16q21 0 33.5 -16t12.5 -40q0 -51 -18.5 -84.5
t-53.5 -38.5z" />
    <glyph glyph-name="bullet" unicode="&#x2022;" horiz-adv-x="530" 
d="M138 319q0 25 9.5 46.5t25.5 37.5t37.5 25.5t46.5 9.5t46.5 -9.5t37.5 -25.5t25.5 -37.5t9.5 -46.5t-9.5 -46.5t-25.5 -37.5t-37.5 -25.5t-46.5 -9.5t-46.5 9.5t-37.5 25.5t-25.5 37.5t-9.5 46.5z" />
    <glyph glyph-name="endash" unicode="&#x2013;" horiz-adv-x="351" 
d="M47 340h264v-82h-264v82z" />
    <glyph glyph-name="emdash" unicode="&#x2014;" horiz-adv-x="596" 
d="M47 340h514v-82h-514v82z" />
    <glyph glyph-name="tilde" unicode="&#x2dc;" horiz-adv-x="313" 
d="M205 584q-6 0 -18.5 4.5t-25.5 10.5t-24.5 10.5t-16.5 4.5q-26 2 -52 -33l-29 25q28 52 73 50q6 0 18 -4.5l25.5 -10l26.5 -10.5t20 -6q33 -2 47 29l24 -27q-3 -12 -11 -20.5t-18 -13.5t-20.5 -7t-18.5 -2z" />
    <glyph glyph-name="trademark" unicode="&#x2122;" horiz-adv-x="561" 
d="M173 484v-223h-59v223h-71v54h199v-54h-69zM448 414l-60 -154l-66 160v-158h-55v277h67l53 -143l52 143h65v-277h-56v152z" />
    <glyph glyph-name="scaron" unicode="&#x161;" horiz-adv-x="347" 
d="M57 107q21 -17 50.5 -23t57.5 -6q31 0 51.5 11.5t20.5 37.5q0 19 -14.5 33.5t-49.5 20.5q-28 5 -54 12.5t-46 22t-32 36.5t-12 57q0 32 11.5 55.5t32.5 38.5t49.5 22t62.5 7q67 0 112 -33l-25 -85q-20 20 -43 27t-52 7q-23 0 -42 -5.5t-22 -28.5q-3 -24 23 -36t71 -22
q51 -11 81.5 -39.5t30.5 -84.5q0 -37 -13 -63t-35.5 -42.5t-53 -24t-64.5 -7.5q-29 0 -61.5 8.5t-64.5 27.5zM171 484l52 62h50l-74 -88h-55l-76 88h51z" />
    <glyph glyph-name="guilsinglright" unicode="&#x203a;" horiz-adv-x="230" 
d="M157 303l-112 52v50l148 -74v-55l-148 -76v51z" />
    <glyph glyph-name="oe" unicode="&#x153;" horiz-adv-x="609" 
d="M419 358q-20 0 -33.5 -8.5t-21.5 -23t-12 -34.5t-5 -43h137q-2 46 -15.5 77.5t-49.5 31.5zM193 349q-42 0 -55.5 -38t-13.5 -99q0 -33 3 -58t10.5 -41.5t21 -25t35.5 -8.5q44 0 56.5 32.5t12.5 98.5v2q0 69 -12.5 103t-57.5 34zM347 165q0 -42 21 -64t53 -22
q11 0 17.5 1.5t11 4.5t8.5 8l10 13l55 -51q-24 -32 -45.5 -46t-59.5 -14q-80 2 -115 50q-39 -50 -110 -50q-81 0 -116 57.5t-35 160.5q0 46 9 86.5t28 70t47.5 46.5t66.5 17q70 0 109 -54q37 60 118 60q151 0 147 -222q0 -12 -0.5 -24.5t-0.5 -25.5h-219v-2z" />
    <glyph glyph-name="zcaron" unicode="&#x17e;" horiz-adv-x="369" 
d="M46 73l182 272h-173v82h279v-72l-183 -273h186v-82h-291v73zM193 484l52 62h50l-74 -88h-55l-76 88h51z" />
    <glyph glyph-name="Ydieresis" unicode="&#x178;" horiz-adv-x="472" 
d="M283 0h-93v210l-163 344h93l117 -253l116 253h92l-162 -342v-212zM165 584q-20 0 -32.5 13.5t-12.5 32.5q0 20 12.5 33t32.5 13q19 0 32.5 -13t13.5 -33q0 -19 -13.5 -32.5t-32.5 -13.5zM303 584q-18 0 -31.5 13.5t-13.5 32.5q0 20 13.5 33t31.5 13q20 0 32.5 -13
t12.5 -33q0 -19 -12.5 -32.5t-32.5 -13.5z" />
    <glyph glyph-name="exclamdown" unicode="&#xa1;" horiz-adv-x="167" 
d="M50 238l8 149h50l8 -149v-236h-66v236zM83 444q-20 0 -32 16.5t-12 39.5t12 39.5t32 16.5q19 0 32.5 -16.5t13.5 -39.5t-13.5 -39.5t-32.5 -16.5z" />
    <glyph glyph-name="cent" unicode="&#xa2;" horiz-adv-x="390" 
d="M353 417q13 0 13 -11q0 -10 -7 -17l-165 -268l-164 268q-6 7 -6 17q0 11 13 11l93 -22v212h129v-212l88 22h6z" />
    <glyph glyph-name="sterling" unicode="&#xa3;" horiz-adv-x="438" 
d="M75 339h35v42q1 30 9.5 61.5t26.5 57t47.5 41.5t73.5 15q40 -1 69 -15.5t44 -47.5l-60 -50q-20 32 -54 32q-42 1 -58 -20t-17 -63v-53h105v-82h-105v-76q0 -11 -3 -26t-8.5 -30t-14 -27t-19.5 -16h248v-82h-354v82h10q14 0 25 12t18.5 31t11.5 42t5 45v45h-35v82z" />
    <glyph glyph-name="currency" unicode="&#xa4;" horiz-adv-x="448" 
d="M50 372q22 89 77 138q52 49 134 49q95 0 150 -55l-48 -84q-20 22 -42 33q-26 14 -60 14q-40 0 -72 -23q-31 -23 -47 -72h193l-35 -62h-175q-1 -2 -1 -12v-50h141l-36 -63h-85q18 -53 49 -75q31 -24 71 -24q25 0 58 14q18 9 32 20l59 -68q-59 -59 -152 -59q-77 0 -133 50
q-55 49 -78 142h-43v63h30v62l-30 2v60h43z" />
    <glyph glyph-name="yen" unicode="&#xa5;" horiz-adv-x="472" 
d="M99 208h91v2l-163 344h93l117 -253l116 253h92l-162 -342v-4h81v-61h-81v-31h81v-60h-81v-56h-93v56h-91v60h91v31h-91v61z" />
    <glyph glyph-name="brokenbar" unicode="&#xa6;" horiz-adv-x="445" 
d="M203 100q-6 -6 -13 -6q-10 0 -10 13l18 114h-173v160h173l-18 115q0 13 10 13q7 0 13 -6l219 -202z" />
    <glyph glyph-name="section" unicode="&#xa7;" horiz-adv-x="390" 
d="M353 325q-5 0 -6 1l-88 22v-212h-129v212l-88 -22q-1 -1 -5 -1q-13 0 -13 12q0 9 6 17l164 268l165 -268q7 -7 7 -17q0 -12 -13 -12z" />
    <glyph glyph-name="dieresis" unicode="&#xa8;" horiz-adv-x="336" 
d="M99 584q-20 0 -32.5 13.5t-12.5 32.5q0 20 12.5 33t32.5 13q19 0 32.5 -13t13.5 -33q0 -19 -13.5 -32.5t-32.5 -13.5zM237 584q-18 0 -31.5 13.5t-13.5 32.5q0 20 13.5 33t31.5 13q20 0 32.5 -13t12.5 -33q0 -19 -12.5 -32.5t-32.5 -13.5z" />
    <glyph glyph-name="copyright" unicode="&#xa9;" horiz-adv-x="635" 
d="M23 275q0 -53 20 -99.5t54.5 -81t81 -54.5t99.5 -20t99.5 20t81.5 54.5t55 81t20 99.5t-20 99.5t-55 81.5t-81.5 55t-99.5 20t-99.5 -20t-81 -55t-54.5 -81.5t-20 -99.5zM0 276q0 57 22 107.5t59.5 88t88 59.5t107.5 22t107.5 -22t88 -59.5t59.5 -88t22 -107.5
t-22 -107.5t-59.5 -88t-88 -59.5t-107.5 -22t-107.5 22t-88 59.5t-59.5 88t-22 107.5zM338 353q-24 34 -65 34q-38 0 -60.5 -30.5t-22.5 -84.5q0 -51 24 -83t60 -32q18 0 35.5 8.5t28.5 21.5l43 -29q-38 -57 -108 -57q-30 0 -55 13t-43 36t-28 54.5t-10 67.5q0 37 9.5 68
t27 54t42.5 36t57 13q77 0 111 -61z" />
    <glyph glyph-name="ordfeminine" unicode="&#xaa;" horiz-adv-x="355" 
d="M170 402q0 5 -7.5 8.5t-14.5 3.5q-32 0 -32 -27q0 -11 8 -17t19 -6q8 0 17.5 3t9.5 10v25zM176 338q-8 -14 -20 -20t-23 -6q-29 0 -49 19.5t-20 55.5q-2 22 7 37.5t24.5 24t35 9.5t38.5 -6q-1 10 -7.5 16.5t-15 9t-18 1t-16.5 -7.5l-26 31q11 14 26 19.5t33 5.5
q35 0 56 -21.5t21 -57.5v-136h-51z" />
    <glyph glyph-name="guillemotleft" unicode="&#xab;" horiz-adv-x="374" 
d="M80 301l112 -52v-50l-148 74v55l148 76v-51zM230 301l112 -52v-50l-148 74v55l148 76v-51z" />
    <glyph glyph-name="registered" unicode="&#xae;" horiz-adv-x="540" 
d="M270 524q-42 0 -75.5 -15t-57 -39t-36 -55t-12.5 -62q0 -32 12.5 -63t36 -55t57 -39t75.5 -15q39 0 74.5 13t61.5 36.5t41.5 55t15.5 67.5q0 31 -14.5 62t-40 55t-61 39t-77.5 15zM271 142q-49 0 -90 17.5t-71 46.5t-46.5 67t-16.5 80q0 43 16.5 81.5t46.5 67.5t71 46
t90 17t91 -16.5t72.5 -45t47.5 -67t17 -83.5q0 -42 -17.5 -80t-48 -67t-72.5 -46.5t-90 -17.5zM246 418v-52h38q24 0 24 25q0 27 -24 27h-38zM270 319h-24v-84h-45v229h82q32 0 51 -19t20 -54q0 -32 -21 -53l-8 -6t-9 -6l41 -91h-48z" />
    <glyph glyph-name="macron" unicode="&#xaf;" horiz-adv-x="295" 
d="M47 640h200v-58h-200v58z" />
    <glyph glyph-name="macron" unicode="&#x2c9;" horiz-adv-x="295" 
d="M47 640h200v-58h-200v58z" />
    <glyph glyph-name="degree" unicode="&#xb0;" horiz-adv-x="321" 
d="M159 519q-38 0 -59 -22.5t-21 -52.5t21 -52t59 -22q37 0 60.5 22t23.5 52t-23.5 52.5t-60.5 22.5zM159 324q-27 0 -49.5 10t-38.5 26.5t-25 38t-9 45.5q0 25 9 47t25 38.5t38.5 26t49.5 9.5t49.5 -9.5t39 -25.5t26 -38.5t9.5 -47.5q0 -24 -9.5 -45.5t-26 -38t-39.5 -26.5
t-49 -10z" />
    <glyph glyph-name="twosuperior" unicode="&#xb2;" horiz-adv-x="223" 
d="M32 303q0 24 4.5 41.5t12.5 31t19 24.5t25 22q5 4 10 7t11 5q11 6 19 12.5t9 24.5q0 25 -27 25q-14 0 -25 -6.5t-23 -26.5l-35 48q31 42 85 42q34 0 55.5 -18.5t21.5 -61.5v-1q0 -39 -20.5 -59t-46.5 -35q-16 -10 -26 -22t-12 -28h105v-54h-162v29z" />
    <glyph glyph-name="threesuperior" unicode="&#xb3;" horiz-adv-x="228" 
d="M117 273q-54 0 -79 48l44 33q12 -26 35 -26q29 0 30 31q-2 38 -32 38h-23v54h23q19 0 19 28q0 19 -18 21h-4q-14 0 -18 -19l-45 20q20 53 66 53q67 0 68 -73q0 -34 -21 -52q35 -22 37 -69q-1 -85 -82 -87z" />
    <glyph glyph-name="acute" unicode="&#xb4;" horiz-adv-x="155" 
d="M58 583h-29l50 89h56z" />
    <glyph glyph-name="mu" unicode="&#xb5;" horiz-adv-x="416" 
d="M368 118l1 -15q0 -17 4.5 -28t21.5 -17l-28 -76q-32 9 -49.5 30t-25.5 49q-16 -33 -46 -50t-68 -16q-16 0 -29.5 5.5t-26.5 11.5q-10 -39 -29.5 -63.5t-57.5 -47.5l-50 66q25 16 39.5 35.5t21.5 42t7.5 47.5t-1.5 53v282h82v-254q0 -42 18 -68t53 -26q34 0 57.5 26
t23.5 68v254h82v-309z" />
    <glyph glyph-name="cedilla" unicode="&#xb8;" horiz-adv-x="181" 
d="M88 39v-52q73 3 73 -61q1 -70 -75 -71q-18 -1 -31.5 1t-23.5 6l12 40q24 -6 48 -3q31 4 29 26q1 22 -29 23q-14 1 -39 -7v98h36z" />
    <glyph glyph-name="onesuperior" unicode="&#xb9;" horiz-adv-x="165" 
d="M66 478h-20v52q23 0 25 24h41v-277h-46v201z" />
    <glyph glyph-name="ordmasculine" unicode="&#xba;" horiz-adv-x="317" 
d="M160.023 509.517q-33.4727 0 -51.377 -18.5664t-17.9043 -48.3701q0 -64.9814 70.0605 -64.9814q69.2812 0 69.2812 64.9814q0 66.9365 -70.0605 66.9365zM160.023 336.557q-63.0537 0 -98.083 28.0938q-35.0303 28.0938 -35.0303 78.4189q0 22.4746 9.73047 42.2627
q9.73047 19.7871 27.2451 34.2012q17.5156 14.4131 42.0361 22.7188q24.5215 8.30566 54.1016 8.30566q30.3594 0 54.8809 -8.06152q24.5205 -8.06152 42.0352 -22.4746q17.5156 -14.4131 27.2461 -34.2012t9.73047 -42.751q0 -48.3701 -35.0303 -77.4414
q-35.0293 -29.0713 -98.8623 -29.0713z" />
    <glyph glyph-name="guillemotright" unicode="&#xbb;" horiz-adv-x="386" 
d="M317 303l-112 52v50l148 -74v-55l-148 -76v51zM167 303l-112 52v50l148 -74v-55l-148 -76v51z" />
    <glyph glyph-name="onequarter" unicode="&#xbc;" horiz-adv-x="552" 
d="M418 124v73l-48 -73h48zM79 476h-24v54q28 0 30 24h49v-285h-55v207zM31 0l426 554h42l-427 -554h-41zM473 69v-70h-55v70h-109v56l106 160h58v-161h30v-55h-30z" />
    <glyph glyph-name="onehalf" unicode="&#xbd;" horiz-adv-x="598" 
d="M85 474h-24v54q28 0 30 24h50v-285h-56v207zM31 0l427 554h42l-428 -554h-41zM370 29q0 25 4.5 43.5t13 32.5t20.5 25t27 22l12 7t10 5q12 6 21 13t10 25q0 26 -30 26q-14 0 -25.5 -6.5t-24.5 -27.5l-38 49q35 44 91 44q36 0 59 -19t23 -64v-1q0 -39 -21.5 -60.5
t-49.5 -35.5q-17 -11 -28 -23t-13 -29h112v-55h-173v29z" />
    <glyph glyph-name="threequarters" unicode="&#xbe;" horiz-adv-x="550" 
d="M426 124v73l-48 -73h48zM31 0l426 554h42l-427 -554h-41zM125 264q-58 0 -84 50l47 33q12 -26 37 -26q30 0 32 32q-2 39 -34 39h-24v55h24q20 0 20 28q0 22 -19 23h-4q-16 0 -19 -20l-49 21q21 54 71 54q70 0 72 -75q0 -37 -22 -53q38 -26 39 -71q-2 -89 -87 -90zM481 69
v-70h-55v70h-109v56l106 160h58v-161h30v-55h-30z" />
    <glyph glyph-name="questiondown" unicode="&#xbf;" horiz-adv-x="351" 
d="M175 3q-66 0 -106.5 38.5t-40.5 108.5q0 26 3 45t9.5 34t17 28t26.5 27q7 6 17.5 16t21 26.5t19 39.5t10.5 53h79v-8q0 -31 -3.5 -54t-12 -42.5t-23 -38t-37.5 -40.5q-39 -39 -39 -80q0 -59 57 -59q26 0 57.5 14.5t51.5 35.5l39 -77q-48 -67 -146 -67zM192 464
q-19 0 -32.5 16.5t-13.5 39.5t13.5 39.5t32.5 16.5t32.5 -16.5t13.5 -39.5t-13.5 -39.5t-32.5 -16.5z" />
    <glyph glyph-name="Agrave" unicode="&#xc0;" horiz-adv-x="451" 
d="M148 195h154l-78 275zM283 554l163 -554h-88l-29 101h-207l-28 -101h-89l163 554h115zM135 669h56l50 -89h-29z" />
    <glyph glyph-name="Aacute" unicode="&#xc1;" horiz-adv-x="451" 
d="M148 195h154l-78 275zM283 554l163 -554h-88l-29 101h-207l-28 -101h-89l163 554h115zM223 583h-29l50 89h56z" />
    <glyph glyph-name="Acircumflex" unicode="&#xc2;" horiz-adv-x="451" 
d="M148 195h154l-78 275zM283 554l163 -554h-88l-29 101h-207l-28 -101h-89l163 554h115zM223 643l-52 -62h-50l74 88h55l76 -88h-51z" />
    <glyph glyph-name="Atilde" unicode="&#xc3;" horiz-adv-x="451" 
d="M148 195h154l-78 275zM283 554l163 -554h-88l-29 101h-207l-28 -101h-89l163 554h115zM269 584q-6 0 -18.5 4.5t-25.5 10.5t-24.5 10.5t-16.5 4.5q-26 2 -52 -33l-29 25q28 52 73 50q6 0 18 -4.5l25.5 -10l26.5 -10.5t20 -6q33 -2 47 29l24 -27q-3 -12 -11 -20.5
t-18 -13.5t-20.5 -7t-18.5 -2z" />
    <glyph glyph-name="Adieresis" unicode="&#xc4;" horiz-adv-x="451" 
d="M148 195h154l-78 275zM283 554l163 -554h-88l-29 101h-207l-28 -101h-89l163 554h115zM155 584q-20 0 -32.5 13.5t-12.5 32.5q0 20 12.5 33t32.5 13q19 0 32.5 -13t13.5 -33q0 -19 -13.5 -32.5t-32.5 -13.5zM293 584q-18 0 -31.5 13.5t-13.5 32.5q0 20 13.5 33t31.5 13
q20 0 32.5 -13t12.5 -33q0 -19 -12.5 -32.5t-32.5 -13.5z" />
    <glyph glyph-name="Aring" unicode="&#xc5;" horiz-adv-x="451" 
d="M148 195h154l-78 275zM283 554l163 -554h-88l-29 101h-207l-28 -101h-89l163 554h115zM224 682q-15 0 -27 -12t-12 -29q0 -18 11.5 -29.5t27.5 -11.5q17 0 29 11.5t12 29.5q0 17 -12.5 29t-28.5 12zM223 579q-26 0 -43 17t-17 43q0 27 17 45.5t43 18.5t43.5 -19t17.5 -45
t-17.5 -43t-43.5 -17z" />
    <glyph glyph-name="AE" unicode="&#xc6;" horiz-adv-x="638" 
d="M288 472l-52 -155h81v155h-29zM317 234h-103l-77 -234h-105l185 554h376v-82h-178v-155h161v-82h-161v-153h178v-82h-276v234z" />
    <glyph glyph-name="Ccedilla" unicode="&#xc7;" horiz-adv-x="482" 
d="M370 411q-22 29 -48.5 42.5t-60.5 13.5q-63 0 -100 -51.5t-37 -138.5q0 -41 10.5 -76t29 -60.5t44.5 -40t56 -14.5q29 0 58 14.5t48 34.5l71 -48q-61 -94 -180 -94q-49 0 -90 21.5t-71 59.5t-46.5 90t-16.5 113t15.5 112.5t44.5 89t70.5 59t93.5 21.5q127 0 185 -100z
M257 39v-52q73 3 73 -61q1 -70 -75 -71q-18 -1 -31.5 1t-23.5 6l12 40q24 -6 48 -3q31 4 29 26q1 22 -29 23q-14 1 -39 -7v98h36z" />
    <glyph glyph-name="Egrave" unicode="&#xc8;" horiz-adv-x="385" 
d="M47 554h295v-82h-213v-147h133v-82h-133v-161h213v-82h-295v554zM120 669h56l50 -89h-29z" />
    <glyph glyph-name="Eacute" unicode="&#xc9;" horiz-adv-x="385" 
d="M47 554h295v-82h-213v-147h133v-82h-133v-161h213v-82h-295v554zM181 583h-29l50 89h56z" />
    <glyph glyph-name="Ecircumflex" unicode="&#xca;" horiz-adv-x="385" 
d="M47 554h295v-82h-213v-147h133v-82h-133v-161h213v-82h-295v554zM191 643l-52 -62h-50l74 88h55l76 -88h-51z" />
    <glyph glyph-name="Edieresis" unicode="&#xcb;" horiz-adv-x="385" 
d="M47 554h295v-82h-213v-147h133v-82h-133v-161h213v-82h-295v554zM114 584q-20 0 -32.5 13.5t-12.5 32.5q0 20 12.5 33t32.5 13q19 0 32.5 -13t13.5 -33q0 -19 -13.5 -32.5t-32.5 -13.5zM252 584q-18 0 -31.5 13.5t-13.5 32.5q0 20 13.5 33t31.5 13q20 0 32.5 -13
t12.5 -33q0 -19 -12.5 -32.5t-32.5 -13.5z" />
    <glyph glyph-name="Igrave" unicode="&#xcc;" horiz-adv-x="179" 
d="M47 554h82v-554h-82v554zM5 669h56l50 -89h-29z" />
    <glyph glyph-name="Iacute" unicode="&#xcd;" horiz-adv-x="179" 
d="M47 554h82v-554h-82v554zM96 583h-29l50 89h56z" />
    <glyph glyph-name="Icircumflex" unicode="&#xce;" horiz-adv-x="179" 
d="M47 554h82v-554h-82v554zM90 643l-52 -62h-50l74 88h55l76 -88h-51z" />
    <glyph glyph-name="Idieresis" unicode="&#xcf;" horiz-adv-x="179" 
d="M47 554h82v-554h-82v554zM24 584q-20 0 -32.5 13.5t-12.5 32.5q0 20 12.5 33t32.5 13q19 0 32.5 -13t13.5 -33q0 -19 -13.5 -32.5t-32.5 -13.5zM162 584q-18 0 -31.5 13.5t-13.5 32.5q0 20 13.5 33t31.5 13q20 0 32.5 -13t12.5 -33q0 -19 -12.5 -32.5t-32.5 -13.5z" />
    <glyph glyph-name="Eth" unicode="&#xd0;" horiz-adv-x="497" 
d="M129 472v-389h55q42 0 77 14.5t61 40.5t40.5 62t14.5 78q0 43 -14.5 79t-40.5 61.5t-61 39.5t-77 14h-55zM47 0v554h155q57 0 104.5 -20.5t82 -57.5t53.5 -87t19 -110q0 -65 -20 -117t-55.5 -88t-83.5 -55t-105 -19h-150zM21 321h144v-82h-144v82z" />
    <glyph glyph-name="Ntilde" unicode="&#xd1;" horiz-adv-x="474" 
d="M126 412v-412h-82v554h102l201 -395v395h82v-554h-94zM271 584q-6 0 -18.5 4.5t-25.5 10.5t-24.5 10.5t-16.5 4.5q-26 2 -52 -33l-29 25q28 52 73 50q6 0 18 -4.5l25.5 -10l26.5 -10.5t20 -6q33 -2 47 29l24 -27q-3 -12 -11 -20.5t-18 -13.5t-20.5 -7t-18.5 -2z" />
    <glyph glyph-name="Ograve" unicode="&#xd2;" horiz-adv-x="521" 
d="M261 476q-63 0 -102 -49.5t-39 -149.5q0 -51 11 -88t30 -61.5t44.5 -36.5t55.5 -12q60 0 100.5 48.5t40.5 149.5q0 100 -37.5 149.5t-103.5 49.5zM261 -4q-94 0 -159 74q-62 74 -64 207q0 133 63 207q65 75 160 73q98 0 160 -74t62 -206q0 -131 -62 -208
q-61 -75 -160 -73zM164 669h56l50 -89h-29z" />
    <glyph glyph-name="Oacute" unicode="&#xd3;" horiz-adv-x="521" 
d="M261 476q-63 0 -102 -49.5t-39 -149.5q0 -51 11 -88t30 -61.5t44.5 -36.5t55.5 -12q60 0 100.5 48.5t40.5 149.5q0 100 -37.5 149.5t-103.5 49.5zM261 -4q-94 0 -159 74q-62 74 -64 207q0 133 63 207q65 75 160 73q98 0 160 -74t62 -206q0 -131 -62 -208
q-61 -75 -160 -73zM253 583h-29l50 89h56z" />
    <glyph glyph-name="Ocircumflex" unicode="&#xd4;" horiz-adv-x="521" 
d="M261 476q-63 0 -102 -49.5t-39 -149.5q0 -51 11 -88t30 -61.5t44.5 -36.5t55.5 -12q60 0 100.5 48.5t40.5 149.5q0 100 -37.5 149.5t-103.5 49.5zM261 -4q-94 0 -159 74q-62 74 -64 207q0 133 63 207q65 75 160 73q98 0 160 -74t62 -206q0 -131 -62 -208
q-61 -75 -160 -73zM259 643l-52 -62h-50l74 88h55l76 -88h-51z" />
    <glyph glyph-name="Otilde" unicode="&#xd5;" horiz-adv-x="521" 
d="M261 476q-63 0 -102 -49.5t-39 -149.5q0 -51 11 -88t30 -61.5t44.5 -36.5t55.5 -12q60 0 100.5 48.5t40.5 149.5q0 100 -37.5 149.5t-103.5 49.5zM261 -4q-94 0 -159 74q-62 74 -64 207q0 133 63 207q65 75 160 73q98 0 160 -74t62 -206q0 -131 -62 -208
q-61 -75 -160 -73zM305 584q-6 0 -18.5 4.5t-25.5 10.5t-24.5 10.5t-16.5 4.5q-26 2 -52 -33l-29 25q28 52 73 50q6 0 18 -4.5l25.5 -10l26.5 -10.5t20 -6q33 -2 47 29l24 -27q-3 -12 -11 -20.5t-18 -13.5t-20.5 -7t-18.5 -2z" />
    <glyph glyph-name="Odieresis" unicode="&#xd6;" horiz-adv-x="521" 
d="M261 476q-63 0 -102 -49.5t-39 -149.5q0 -51 11 -88t30 -61.5t44.5 -36.5t55.5 -12q60 0 100.5 48.5t40.5 149.5q0 100 -37.5 149.5t-103.5 49.5zM261 -4q-94 0 -159 74q-62 74 -64 207q0 133 63 207q65 75 160 73q98 0 160 -74t62 -206q0 -131 -62 -208
q-61 -75 -160 -73zM191 584q-20 0 -32.5 13.5t-12.5 32.5q0 20 12.5 33t32.5 13q19 0 32.5 -13t13.5 -33q0 -19 -13.5 -32.5t-32.5 -13.5zM329 584q-18 0 -31.5 13.5t-13.5 32.5q0 20 13.5 33t31.5 13q20 0 32.5 -13t12.5 -33q0 -19 -12.5 -32.5t-32.5 -13.5z" />
    <glyph glyph-name="multiply" unicode="&#xd7;" horiz-adv-x="432" 
d="M214 197l-132 -175l-39 51l134 175l-134 176l39 51l132 -176l135 176l40 -51l-135 -176l135 -175l-40 -51z" />
    <glyph glyph-name="Oslash" unicode="&#xd8;" horiz-adv-x="521" 
d="M261 476q-63 0 -102 -49.5t-39 -149.5q0 -84 29 -134l183 314q-28 19 -71 19zM402 277q0 86 -29 136l-183 -313q31 -21 71 -21q60 0 100.5 48.5t40.5 149.5zM66 0l39 67l-3 3q-62 74 -64 207q0 133 63 207q65 75 160 73q65 0 111 -31l16 27h67l-38 -65q1 -1 1.5 -2
t2.5 -3q62 -74 62 -206q0 -131 -62 -208q-61 -75 -160 -73q-64 0 -113 33l-17 -29h-65z" />
    <glyph glyph-name="Ugrave" unicode="&#xd9;" horiz-adv-x="466" 
d="M236 -2q-91 0 -141.5 59t-50.5 168v329h82v-349q0 -69 29.5 -97t80.5 -28q49 0 76 28t27 97v349h83v-328q0 -109 -47.5 -168.5t-138.5 -59.5zM143 669h56l50 -89h-29z" />
    <glyph glyph-name="Uacute" unicode="&#xda;" horiz-adv-x="466" 
d="M236 -2q-91 0 -141.5 59t-50.5 168v329h82v-349q0 -69 29.5 -97t80.5 -28q49 0 76 28t27 97v349h83v-328q0 -109 -47.5 -168.5t-138.5 -59.5zM222 583h-29l50 89h56z" />
    <glyph glyph-name="Ucircumflex" unicode="&#xdb;" horiz-adv-x="466" 
d="M236 -2q-91 0 -141.5 59t-50.5 168v329h82v-349q0 -69 29.5 -97t80.5 -28q49 0 76 28t27 97v349h83v-328q0 -109 -47.5 -168.5t-138.5 -59.5zM231 643l-52 -62h-50l74 88h55l76 -88h-51z" />
    <glyph glyph-name="Udieresis" unicode="&#xdc;" horiz-adv-x="466" 
d="M236 -2q-91 0 -141.5 59t-50.5 168v329h82v-349q0 -69 29.5 -97t80.5 -28q49 0 76 28t27 97v349h83v-328q0 -109 -47.5 -168.5t-138.5 -59.5zM167 584q-20 0 -32.5 13.5t-12.5 32.5q0 20 12.5 33t32.5 13q19 0 32.5 -13t13.5 -33q0 -19 -13.5 -32.5t-32.5 -13.5zM305 584
q-18 0 -31.5 13.5t-13.5 32.5q0 20 13.5 33t31.5 13q20 0 32.5 -13t12.5 -33q0 -19 -12.5 -32.5t-32.5 -13.5z" />
    <glyph glyph-name="Yacute" unicode="&#xdd;" horiz-adv-x="472" 
d="M283 0h-93v210l-163 344h93l117 -253l116 253h92l-162 -342v-212zM212 583h-29l50 89h56z" />
    <glyph glyph-name="Thorn" unicode="&#xde;" horiz-adv-x="411" 
d="M129 185h54q36 0 59.5 6.5t37 20t19 33.5t5.5 46q0 27 -11 44.5t-28.5 28.5t-40 15.5t-46.5 4.5h-49v-199zM129 466h61q44 0 81 -11t63.5 -33t41.5 -54.5t15 -74.5q0 -45 -16.5 -80t-45 -59.5t-65.5 -37.5t-77 -13h-58v-103h-82v554h82v-88z" />
    <glyph glyph-name="germandbls" unicode="&#xdf;" horiz-adv-x="441" 
d="M45 374q0 91 41.5 137.5t116.5 46.5q33 0 62.5 -10t52 -28.5t35.5 -45t13 -60.5q0 -24 -7 -42t-18 -31.5t-25 -22.5t-29 -15q58 -8 88 -42.5t30 -85.5q0 -38 -11 -70t-32 -55t-52 -36.5t-71 -13.5h-47v82h43q38 0 63 22.5t25 67.5q0 42 -31 64.5t-88 21.5v75
q47 0 63.5 18t16.5 63q0 31 -22.5 46.5t-60.5 15.5q-74 0 -74 -82v-394h-82v374z" />
    <glyph glyph-name="agrave" unicode="&#xe0;" horiz-adv-x="391" 
d="M263 178q0 8 -6.5 15.5t-16.5 13t-21 8.5t-21 3q-85 0 -85 -71q0 -30 22.5 -48.5t53.5 -18.5q10 0 22.5 3t24 8.5t19.5 13.5t8 19v54zM264 37q-10 -15 -36 -28t-63 -13q-28 0 -52.5 10t-43 29.5t-29 47t-10.5 62.5q0 72 41.5 110t108.5 38q24 0 45 -5.5t38 -24.5
q0 27 -5.5 43.5t-15.5 25.5t-25.5 12.5t-34.5 3.5q-23 0 -39.5 -7.5t-29.5 -18.5l-37 63q20 22 50 34t67 12q69 0 111 -41.5t42 -113.5v-276h-82v37zM114 546h56l50 -89h-29z" />
    <glyph glyph-name="aacute" unicode="&#xe1;" horiz-adv-x="391" 
d="M263 178q0 8 -6.5 15.5t-16.5 13t-21 8.5t-21 3q-85 0 -85 -71q0 -30 22.5 -48.5t53.5 -18.5q10 0 22.5 3t24 8.5t19.5 13.5t8 19v54zM264 37q-10 -15 -36 -28t-63 -13q-28 0 -52.5 10t-43 29.5t-29 47t-10.5 62.5q0 72 41.5 110t108.5 38q24 0 45 -5.5t38 -24.5
q0 27 -5.5 43.5t-15.5 25.5t-25.5 12.5t-34.5 3.5q-23 0 -39.5 -7.5t-29.5 -18.5l-37 63q20 22 50 34t67 12q69 0 111 -41.5t42 -113.5v-276h-82v37zM198 460h-29l50 89h56z" />
    <glyph glyph-name="acircumflex" unicode="&#xe2;" horiz-adv-x="391" 
d="M263 178q0 8 -6.5 15.5t-16.5 13t-21 8.5t-21 3q-85 0 -85 -71q0 -30 22.5 -48.5t53.5 -18.5q10 0 22.5 3t24 8.5t19.5 13.5t8 19v54zM264 37q-10 -15 -36 -28t-63 -13q-28 0 -52.5 10t-43 29.5t-29 47t-10.5 62.5q0 72 41.5 110t108.5 38q24 0 45 -5.5t38 -24.5
q0 27 -5.5 43.5t-15.5 25.5t-25.5 12.5t-34.5 3.5q-23 0 -39.5 -7.5t-29.5 -18.5l-37 63q20 22 50 34t67 12q69 0 111 -41.5t42 -113.5v-276h-82v37zM196 520l-52 -62h-50l74 88h55l76 -88h-51z" />
    <glyph glyph-name="atilde" unicode="&#xe3;" horiz-adv-x="391" 
d="M263 178q0 8 -6.5 15.5t-16.5 13t-21 8.5t-21 3q-85 0 -85 -71q0 -30 22.5 -48.5t53.5 -18.5q10 0 22.5 3t24 8.5t19.5 13.5t8 19v54zM264 37q-10 -15 -36 -28t-63 -13q-28 0 -52.5 10t-43 29.5t-29 47t-10.5 62.5q0 72 41.5 110t108.5 38q24 0 45 -5.5t38 -24.5
q0 27 -5.5 43.5t-15.5 25.5t-25.5 12.5t-34.5 3.5q-23 0 -39.5 -7.5t-29.5 -18.5l-37 63q20 22 50 34t67 12q69 0 111 -41.5t42 -113.5v-276h-82v37zM249 461q-6 0 -18.5 4.5t-25.5 10.5t-24.5 10.5t-16.5 4.5q-26 2 -52 -33l-29 25q28 52 73 50q6 0 18 -4.5l25.5 -10
l26.5 -10.5t20 -6q33 -2 47 29l24 -27q-3 -12 -11 -20.5t-18 -13.5t-20.5 -7t-18.5 -2z" />
    <glyph glyph-name="adieresis" unicode="&#xe4;" horiz-adv-x="391" 
d="M263 178q0 8 -6.5 15.5t-16.5 13t-21 8.5t-21 3q-85 0 -85 -71q0 -30 22.5 -48.5t53.5 -18.5q10 0 22.5 3t24 8.5t19.5 13.5t8 19v54zM264 37q-10 -15 -36 -28t-63 -13q-28 0 -52.5 10t-43 29.5t-29 47t-10.5 62.5q0 72 41.5 110t108.5 38q24 0 45 -5.5t38 -24.5
q0 27 -5.5 43.5t-15.5 25.5t-25.5 12.5t-34.5 3.5q-23 0 -39.5 -7.5t-29.5 -18.5l-37 63q20 22 50 34t67 12q69 0 111 -41.5t42 -113.5v-276h-82v37zM130 461q-20 0 -32.5 13.5t-12.5 32.5q0 20 12.5 33t32.5 13q19 0 32.5 -13t13.5 -33q0 -19 -13.5 -32.5t-32.5 -13.5z
M268 461q-18 0 -31.5 13.5t-13.5 32.5q0 20 13.5 33t31.5 13q20 0 32.5 -13t12.5 -33q0 -19 -12.5 -32.5t-32.5 -13.5z" />
    <glyph glyph-name="aring" unicode="&#xe5;" horiz-adv-x="391" 
d="M263 178q0 8 -6.5 15.5t-16.5 13t-21 8.5t-21 3q-85 0 -85 -71q0 -30 22.5 -48.5t53.5 -18.5q10 0 22.5 3t24 8.5t19.5 13.5t8 19v54zM264 37q-10 -15 -36 -28t-63 -13q-28 0 -52.5 10t-43 29.5t-29 47t-10.5 62.5q0 72 41.5 110t108.5 38q24 0 45 -5.5t38 -24.5
q0 27 -5.5 43.5t-15.5 25.5t-25.5 12.5t-34.5 3.5q-23 0 -39.5 -7.5t-29.5 -18.5l-37 63q20 22 50 34t67 12q69 0 111 -41.5t42 -113.5v-276h-82v37zM202 559q-15 0 -27 -12t-12 -29q0 -18 11.5 -29.5t27.5 -11.5q17 0 29 11.5t12 29.5q0 17 -12.5 29t-28.5 12zM201 456
q-26 0 -43 17t-17 43q0 27 17 45.5t43 18.5t43.5 -19t17.5 -45t-17.5 -43t-43.5 -17z" />
    <glyph glyph-name="ae" unicode="&#xe6;" horiz-adv-x="577" 
d="M389 358q-20 0 -33.5 -8.5t-21.5 -23t-12 -34.5t-5 -43h137q-2 46 -15.5 77.5t-49.5 31.5zM232 178q0 17 -12.5 28.5t-32.5 11.5q-42 0 -53.5 -17t-11.5 -54q0 -30 12.5 -48.5t43.5 -18.5q20 0 37 11t17 33v54zM317 165q0 -42 21 -64t53 -22q22 0 32 4.5t26 22.5l43 -52
q-20 -29 -48 -43t-56 -16q-35 -3 -63 13.5t-47 42.5q-16 -32 -46.5 -43.5t-65.5 -11.5q-57 0 -92 39.5t-35 109.5q0 72 31.5 110t98.5 38q12 0 20 -1t15 -4.5t13.5 -9.5t14.5 -15q0 27 -2 43.5t-8.5 25.5t-18.5 12.5t-32 3.5q-22 0 -29.5 -7l-19.5 -19l-37 63q20 22 40 34
t57 12q33 0 57 -10.5t41 -29.5q40 48 110 48q151 0 147 -222q0 -12 -0.5 -24.5t-0.5 -25.5h-219v-2z" />
    <glyph glyph-name="ccedilla" unicode="&#xe7;" horiz-adv-x="358" 
d="M201 -8q-41 0 -74 16t-55.5 45.5t-34.5 71t-12 92.5q0 47 13 87t36.5 69t55.5 45t71 16q38 0 67.5 -15t49.5 -39l-62 -53q-8 11 -20 17t-35 6q-43 0 -67.5 -37t-24.5 -97q0 -139 92 -139q37 0 61 26l68 -48q-51 -63 -129 -63zM191 39v-52q73 3 73 -61q1 -70 -75 -71
q-18 -1 -31.5 1t-23.5 6l12 40q24 -6 48 -3q31 4 29 26q1 22 -29 23q-14 1 -39 -7v98h36z" />
    <glyph glyph-name="egrave" unicode="&#xe8;" 
d="M205 358q-40 0 -65 -31.5t-27 -77.5h177q-2 46 -25 77.5t-60 31.5zM113 165q0 -20 8.5 -36t22 -27t30 -17t33.5 -6q22 0 38.5 6t28.5 21l55 -51q-24 -32 -55.5 -46t-69.5 -14q-88 1 -131.5 56.5t-43.5 158.5q0 52 12 94.5t35 72.5t56 46t74 16q76 0 122 -56.5t45 -165.5
q0 -12 -0.5 -24.5t-0.5 -25.5h-259v-2zM114 546h56l50 -89h-29z" />
    <glyph glyph-name="eacute" unicode="&#xe9;" 
d="M205 358q-40 0 -65 -31.5t-27 -77.5h177q-2 46 -25 77.5t-60 31.5zM113 165q0 -20 8.5 -36t22 -27t30 -17t33.5 -6q22 0 38.5 6t28.5 21l55 -51q-24 -32 -55.5 -46t-69.5 -14q-88 1 -131.5 56.5t-43.5 158.5q0 52 12 94.5t35 72.5t56 46t74 16q76 0 122 -56.5t45 -165.5
q0 -12 -0.5 -24.5t-0.5 -25.5h-259v-2zM185 460h-29l50 89h56z" />
    <glyph glyph-name="ecircumflex" unicode="&#xea;" 
d="M205 358q-40 0 -65 -31.5t-27 -77.5h177q-2 46 -25 77.5t-60 31.5zM113 165q0 -20 8.5 -36t22 -27t30 -17t33.5 -6q22 0 38.5 6t28.5 21l55 -51q-24 -32 -55.5 -46t-69.5 -14q-88 1 -131.5 56.5t-43.5 158.5q0 52 12 94.5t35 72.5t56 46t74 16q76 0 122 -56.5t45 -165.5
q0 -12 -0.5 -24.5t-0.5 -25.5h-259v-2zM204 520l-52 -62h-50l74 88h55l76 -88h-51z" />
    <glyph glyph-name="edieresis" unicode="&#xeb;" 
d="M205 358q-40 0 -65 -31.5t-27 -77.5h177q-2 46 -25 77.5t-60 31.5zM113 165q0 -20 8.5 -36t22 -27t30 -17t33.5 -6q22 0 38.5 6t28.5 21l55 -51q-24 -32 -55.5 -46t-69.5 -14q-88 1 -131.5 56.5t-43.5 158.5q0 52 12 94.5t35 72.5t56 46t74 16q76 0 122 -56.5t45 -165.5
q0 -12 -0.5 -24.5t-0.5 -25.5h-259v-2zM136 461q-20 0 -32.5 13.5t-12.5 32.5q0 20 12.5 33t32.5 13q19 0 32.5 -13t13.5 -33q0 -19 -13.5 -32.5t-32.5 -13.5zM274 461q-18 0 -31.5 13.5t-13.5 32.5q0 20 13.5 33t31.5 13q20 0 32.5 -13t12.5 -33q0 -19 -12.5 -32.5
t-32.5 -13.5z" />
    <glyph glyph-name="igrave" unicode="&#xec;" horiz-adv-x="179" 
d="M47 427h82v-427h-82v427zM13 546h56l50 -89h-29z" />
    <glyph glyph-name="iacute" unicode="&#xed;" horiz-adv-x="179" 
d="M47 427h82v-427h-82v427zM86 460h-29l50 89h56z" />
    <glyph glyph-name="icircumflex" unicode="&#xee;" horiz-adv-x="179" 
d="M47 427h82v-427h-82v427zM92 520l-52 -62h-50l74 88h55l76 -88h-51z" />
    <glyph glyph-name="idieresis" unicode="&#xef;" horiz-adv-x="179" 
d="M47 427h82v-427h-82v427zM19 461q-20 0 -32.5 13.5t-12.5 32.5q0 20 12.5 33t32.5 13q19 0 32.5 -13t13.5 -33q0 -19 -13.5 -32.5t-32.5 -13.5zM157 461q-18 0 -31.5 13.5t-13.5 32.5q0 20 13.5 33t31.5 13q20 0 32.5 -13t12.5 -33q0 -19 -12.5 -32.5t-32.5 -13.5z" />
    <glyph glyph-name="eth" unicode="&#xf0;" horiz-adv-x="397" 
d="M192 283q-39 0 -63 -28.5t-24 -76.5t25.5 -74.5t65.5 -26.5q39 0 61 27t22 75t-23.5 76t-63.5 28zM113 431l36 42q-15 4 -32 6l13 78q20 -1 38.5 -6.5t35.5 -14.5l39 45l62 -54l-36 -42q42 -48 66.5 -119.5t24.5 -152.5q0 -103 -43 -160.5t-116 -57.5q-78 0 -124 47.5
t-46 141.5q0 39 10.5 72t30 56t46 36t58.5 13q27 0 57 -17t45 -43q-7 42 -22 73.5t-36 54.5l-45 -52z" />
    <glyph glyph-name="ntilde" unicode="&#xf1;" horiz-adv-x="407" 
d="M280 265q0 42 -19 63.5t-53 21.5t-56.5 -21.5t-22.5 -63.5v-265h-82v427h82v-53q15 29 42.5 43t64.5 14q57 0 91.5 -40.5t34.5 -109.5v-281h-82v265zM246 461q-6 0 -18.5 4.5t-25.5 10.5t-24.5 10.5t-16.5 4.5q-26 2 -52 -33l-29 25q28 52 73 50q6 0 18 -4.5l25.5 -10
l26.5 -10.5t20 -6q33 -2 47 29l24 -27q-3 -12 -11 -20.5t-18 -13.5t-20.5 -7t-18.5 -2z" />
    <glyph glyph-name="ograve" unicode="&#xf2;" 
d="M203 349q-43 0 -66 -38t-23 -99q0 -133 90 -133q89 0 89 133q0 137 -90 137zM203 -5q-81 0 -126 57.5t-45 160.5q0 46 12.5 86.5t35 70t54 46.5t69.5 17q39 0 70.5 -16.5t54 -46t35 -70t12.5 -87.5q0 -99 -45 -158.5t-127 -59.5zM122 546h56l50 -89h-29z" />
    <glyph glyph-name="oacute" unicode="&#xf3;" 
d="M203 349q-43 0 -66 -38t-23 -99q0 -133 90 -133q89 0 89 133q0 137 -90 137zM203 -5q-81 0 -126 57.5t-45 160.5q0 46 12.5 86.5t35 70t54 46.5t69.5 17q39 0 70.5 -16.5t54 -46t35 -70t12.5 -87.5q0 -99 -45 -158.5t-127 -59.5zM178 460h-29l50 89h56z" />
    <glyph glyph-name="ocircumflex" unicode="&#xf4;" 
d="M203 349q-43 0 -66 -38t-23 -99q0 -133 90 -133q89 0 89 133q0 137 -90 137zM203 -5q-81 0 -126 57.5t-45 160.5q0 46 12.5 86.5t35 70t54 46.5t69.5 17q39 0 70.5 -16.5t54 -46t35 -70t12.5 -87.5q0 -99 -45 -158.5t-127 -59.5zM204 520l-52 -62h-50l74 88h55l76 -88
h-51z" />
    <glyph glyph-name="otilde" unicode="&#xf5;" 
d="M203 349q-43 0 -66 -38t-23 -99q0 -133 90 -133q89 0 89 133q0 137 -90 137zM203 -5q-81 0 -126 57.5t-45 160.5q0 46 12.5 86.5t35 70t54 46.5t69.5 17q39 0 70.5 -16.5t54 -46t35 -70t12.5 -87.5q0 -99 -45 -158.5t-127 -59.5zM244 461q-6 0 -18.5 4.5t-25.5 10.5
t-24.5 10.5t-16.5 4.5q-26 2 -52 -33l-29 25q28 52 73 50q6 0 18 -4.5l25.5 -10l26.5 -10.5t20 -6q33 -2 47 29l24 -27q-3 -12 -11 -20.5t-18 -13.5t-20.5 -7t-18.5 -2z" />
    <glyph glyph-name="odieresis" unicode="&#xf6;" 
d="M203 349q-43 0 -66 -38t-23 -99q0 -133 90 -133q89 0 89 133q0 137 -90 137zM203 -5q-81 0 -126 57.5t-45 160.5q0 46 12.5 86.5t35 70t54 46.5t69.5 17q39 0 70.5 -16.5t54 -46t35 -70t12.5 -87.5q0 -99 -45 -158.5t-127 -59.5zM134 461q-20 0 -32.5 13.5t-12.5 32.5
q0 20 12.5 33t32.5 13q19 0 32.5 -13t13.5 -33q0 -19 -13.5 -32.5t-32.5 -13.5zM272 461q-18 0 -31.5 13.5t-13.5 32.5q0 20 13.5 33t31.5 13q20 0 32.5 -13t12.5 -33q0 -19 -12.5 -32.5t-32.5 -13.5z" />
    <glyph glyph-name="divide" unicode="&#xf7;" horiz-adv-x="434" 
d="M222 -25q-26 0 -43.5 20.5t-17.5 51.5q0 30 18 50.5t43 20.5q24 0 42.5 -20.5t18.5 -50.5q0 -31 -18 -51.5t-43 -20.5zM20 286h392v-76h-392v76zM222 373q-26 0 -43.5 22.5t-17.5 53.5q0 32 17 54t44 22q26 0 43.5 -22t17.5 -54q0 -31 -18 -53.5t-43 -22.5z" />
    <glyph glyph-name="oslash" unicode="&#xf8;" 
d="M203 349q-43 0 -66 -38t-23 -99q0 -49 12 -80l122 205q-20 12 -45 12zM293 212q0 26 -3.5 46.5t-9.5 37.5l-121 -205q18 -12 45 -12q89 0 89 133zM40 -13l38 65q-46 55 -46 161q0 46 12.5 86.5t35 70t54 46.5t69.5 17q24 0 45.5 -7t40.5 -19l10 17h57l-31 -51
q24 -30 37 -71t13 -89q0 -99 -45 -158.5t-127 -59.5q-50 0 -88 23l-18 -31h-57z" />
    <glyph glyph-name="ugrave" unicode="&#xf9;" horiz-adv-x="409" 
d="M279 52q-16 -30 -45 -43.5t-63 -13.5q-57 0 -91.5 40.5t-34.5 109.5v282h82v-254q0 -42 18 -68t53 -26q34 0 57.5 26t23.5 68v254h82v-427h-82v52zM120 546h56l50 -89h-29z" />
    <glyph glyph-name="uacute" unicode="&#xfa;" horiz-adv-x="409" 
d="M279 52q-16 -30 -45 -43.5t-63 -13.5q-57 0 -91.5 40.5t-34.5 109.5v282h82v-254q0 -42 18 -68t53 -26q34 0 57.5 26t23.5 68v254h82v-427h-82v52zM194 460h-29l50 89h56z" />
    <glyph glyph-name="ucircumflex" unicode="&#xfb;" horiz-adv-x="409" 
d="M279 52q-16 -30 -45 -43.5t-63 -13.5q-57 0 -91.5 40.5t-34.5 109.5v282h82v-254q0 -42 18 -68t53 -26q34 0 57.5 26t23.5 68v254h82v-427h-82v52zM194 520l-52 -62h-50l74 88h55l76 -88h-51z" />
    <glyph glyph-name="udieresis" unicode="&#xfc;" horiz-adv-x="409" 
d="M279 52q-16 -30 -45 -43.5t-63 -13.5q-57 0 -91.5 40.5t-34.5 109.5v282h82v-254q0 -42 18 -68t53 -26q34 0 57.5 26t23.5 68v254h82v-427h-82v52zM136 461q-20 0 -32.5 13.5t-12.5 32.5q0 20 12.5 33t32.5 13q19 0 32.5 -13t13.5 -33q0 -19 -13.5 -32.5t-32.5 -13.5z
M274 461q-18 0 -31.5 13.5t-13.5 32.5q0 20 13.5 33t31.5 13q20 0 32.5 -13t12.5 -33q0 -19 -12.5 -32.5t-32.5 -13.5z" />
    <glyph glyph-name="yacute" unicode="&#xfd;" horiz-adv-x="393" 
d="M108 -180l51 178l-127 429h87l82 -319l80 319h87l-174 -607h-86zM188 460h-29l50 89h56z" />
    <glyph glyph-name="thorn" unicode="&#xfe;" horiz-adv-x="397" 
d="M218 324q-19 0 -35 -10t-28 -26.5t-19 -38t-7 -43.5t7 -43t19 -37.5t28 -26.5t35 -10t35 10t28 26.5t19 37.5t7 43t-7 43.5t-19 38t-28 26.5t-35 10zM236 5q-63 0 -107 47v-195h-82v720h82v-239q47 77 99 77q33 0 60.5 -15.5t48 -42.5t31.5 -62.5t11 -75.5
q0 -44 -10.5 -83t-29.5 -68t-45.5 -46t-57.5 -17z" />
    <glyph glyph-name="ydieresis" unicode="&#xff;" horiz-adv-x="426" 
d="M140 484q-19 0 -32.5 16.5t-13.5 39.5t13.5 39t32.5 16q20 0 33 -16t13 -39t-13 -39.5t-33 -16.5zM297 484q-17 0 -30 16.5t-13 39.5t13 39t30 16q20 0 33 -16t13 -39t-13 -39.5t-33 -16.5zM113 -180l58 174l-144 432h100l92 -297l96 297h86l-196 -606h-92z" />
    <glyph glyph-name="dotlessi" unicode="&#x131;" horiz-adv-x="179" 
d="M47 427h82v-427h-82v427z" />
    <glyph glyph-name="caron" unicode="&#x2c7;" horiz-adv-x="264" 
d="M130 607l52 62h50l-74 -88h-55l-76 88h51z" />
    <glyph glyph-name="breve" unicode="&#x2d8;" horiz-adv-x="263" 
d="M131 582q-43 0 -65.5 22.5t-28.5 65.5h32q6 -26 21 -43.5t41 -17.5q24 0 39 17.5t21 43.5h35q-8 -43 -30.5 -65.5t-64.5 -22.5z" />
    <glyph glyph-name="dotaccent" unicode="&#x2d9;" horiz-adv-x="172" 
d="M86 586q-21 0 -34.5 17t-13.5 42t13.5 42t34.5 17q18 0 32.5 -17.5t14.5 -41.5q0 -25 -14 -42t-33 -17z" />
    <glyph glyph-name="nundagesh" unicode="&#x2da;" horiz-adv-x="229" 
d="M115 682q-15 0 -27 -12t-12 -29q0 -18 11.5 -29.5t27.5 -11.5q17 0 29 11.5t12 29.5q0 17 -12.5 29t-28.5 12zM114 579q-26 0 -43 17t-17 43q0 27 17 45.5t43 18.5t43.5 -19t17.5 -45t-17.5 -43t-43.5 -17z" />
    <glyph glyph-name="ogonek" unicode="&#x2db;" horiz-adv-x="181" 
d="M156 -138q-20 -7 -41 -7q-76 0 -76 146v16v10q0 9 1 12h43q-1 -2 -1 -10v-8v-12q0 -39 8 -66t38 -27q6 0 13.5 2t18.5 6q-2 -17 -2.5 -32.5t-1.5 -29.5z" />
    <glyph glyph-name="hungarumlaut" unicode="&#x2dd;" horiz-adv-x="289" 
d="M49 581l77 91h55l-99 -91h-33zM139 581l77 91h55l-99 -91h-33z" />
    <glyph glyph-name="fracslash" horiz-adv-x="311" 
d="M40 0l429 554h23l-430 -554h-22z" />
    <glyph glyph-name="ring" horiz-adv-x="229" 
d="M115 682q-15 0 -27 -12t-12 -29q0 -18 11.5 -29.5t27.5 -11.5q17 0 29 11.5t12 29.5q0 17 -12.5 29t-28.5 12zM114 579q-26 0 -43 17t-17 43q0 27 17 45.5t43 18.5t43.5 -19t17.5 -45t-17.5 -43t-43.5 -17z" />
    <glyph glyph-name="Sacute" unicode="&#x15a;" horiz-adv-x="416" 
d="M202 -4q-45 0 -85 10t-78 33l28 83q26 -19 59.5 -31t73.5 -12q46 0 71 19.5t25 61.5q0 30 -26.5 49.5t-68.5 42.5q-23 13 -51.5 25.5t-53 30t-41 43.5t-16.5 67q0 64 46.5 102t124.5 38q42 0 79.5 -8.5t64.5 -29.5l-23 -84q-25 19 -52.5 28t-69.5 9q-35 0 -61.5 -11
t-26.5 -40q0 -18 12 -32.5t32 -28t45 -26.5t51 -28q51 -29 84 -66t33 -82q0 -88 -48 -125.5t-128 -37.5zM184 583h-29l50 89h56z" />
    <glyph glyph-name="Tcaron" unicode="&#x164;" horiz-adv-x="437" 
d="M265 0h-91v472h-146v82h381v-82h-144v-472zM218 607l52 62h50l-74 -88h-55l-76 88h51z" />
    <glyph glyph-name="Zacute" unicode="&#x179;" horiz-adv-x="438" 
d="M45 89l254 383h-254v82h347v-91l-255 -381h256v-82h-348v89zM197 583h-29l50 89h56z" />
    <glyph glyph-name="sacute" unicode="&#x15b;" horiz-adv-x="347" 
d="M57 107q21 -17 50.5 -23t57.5 -6q31 0 51.5 11.5t20.5 37.5q0 19 -14.5 33.5t-49.5 20.5q-28 5 -54 12.5t-46 22t-32 36.5t-12 57q0 32 11.5 55.5t32.5 38.5t49.5 22t62.5 7q67 0 112 -33l-25 -85q-20 20 -43 27t-52 7q-23 0 -42 -5.5t-22 -28.5q-3 -24 23 -36t71 -22
q51 -11 81.5 -39.5t30.5 -84.5q0 -37 -13 -63t-35.5 -42.5t-53 -24t-64.5 -7.5q-29 0 -61.5 8.5t-64.5 27.5zM157 460h-29l50 89h56z" />
    <glyph glyph-name="tcaron" unicode="&#x165;" horiz-adv-x="274" 
d="M231 1q-19 -4 -31 -5.5t-26 -1.5q-48 0 -74.5 36t-26.5 102v213h-45v82h45v77l82 46v-123h77v-82h-77v-183q0 -27 2.5 -43.5t8 -25.5t15 -12.5t23.5 -3.5q9 0 19 3t21 7zM189 459q20 5 29.5 17.5t11.5 39.5l-13 -1q-20 0 -31.5 16.5t-11.5 39.5t12.5 39.5t32.5 16.5
q17 0 31 -16.5t14 -39.5t-4.5 -44.5t-13.5 -38.5t-23.5 -28t-33.5 -13v12z" />
    <glyph glyph-name="zacute" unicode="&#x17a;" horiz-adv-x="369" 
d="M46 73l182 272h-173v82h279v-72l-183 -273h186v-82h-291v73zM172 460h-29l50 89h56z" />
    <glyph glyph-name="Lslash" unicode="&#x141;" horiz-adv-x="393" 
d="M62 554h82v-472h231v-82h-313v554zM-37.1211 175.799l230.764 182.02h69.2295l-231.863 -182.02h-68.1299z" />
    <glyph glyph-name="Aogonek" unicode="&#x104;" horiz-adv-x="451" 
d="M148 195h154l-78 275zM283 554l163 -554h-88l-29 101h-207l-28 -101h-89l163 554h115zM502 -138q-20 -7 -41 -7q-76 0 -76 146v16v10q0 9 1 12h43q-1 -2 -1 -10v-8v-12q0 -39 8 -66t38 -27q6 0 13.5 2t18.5 6q-2 -17 -2.5 -32.5t-1.5 -29.5z" />
    <glyph glyph-name="Scommaaccent" unicode="&#x15e;" horiz-adv-x="416" 
d="M202 -4q-45 0 -85 10t-78 33l28 83q26 -19 59.5 -31t73.5 -12q46 0 71 19.5t25 61.5q0 30 -26.5 49.5t-68.5 42.5q-23 13 -51.5 25.5t-53 30t-41 43.5t-16.5 67q0 64 46.5 102t124.5 38q42 0 79.5 -8.5t64.5 -29.5l-23 -84q-25 19 -52.5 28t-69.5 9q-35 0 -61.5 -11
t-26.5 -40q0 -18 12 -32.5t32 -28t45 -26.5t51 -28q51 -29 84 -66t33 -82q0 -88 -48 -125.5t-128 -37.5zM213 39v-52q73 3 73 -61q1 -70 -75 -71q-18 -1 -31.5 1t-23.5 6l12 40q24 -6 48 -3q31 4 29 26q1 22 -29 23q-14 1 -39 -7v98h36z" />
    <glyph glyph-name="Zdotaccent" unicode="&#x17b;" horiz-adv-x="438" 
d="M45 89l254 383h-254v82h347v-91l-255 -381h256v-82h-348v89zM221 586q-21 0 -34.5 17t-13.5 42t13.5 42t34.5 17q18 0 32.5 -17.5t14.5 -41.5q0 -25 -14 -42t-33 -17z" />
    <glyph glyph-name="lslash" unicode="&#x142;" horiz-adv-x="177" 
d="M45 519l82 52v-571h-82v519zM-30.6006 181.109l192.312 176.98h57.6934l-193.228 -176.98h-56.7783z" />
    <glyph glyph-name="aogonek" unicode="&#x105;" horiz-adv-x="391" 
d="M263 178q0 8 -6.5 15.5t-16.5 13t-21 8.5t-21 3q-85 0 -85 -71q0 -30 22.5 -48.5t53.5 -18.5q10 0 22.5 3t24 8.5t19.5 13.5t8 19v54zM264 37q-10 -15 -36 -28t-63 -13q-28 0 -52.5 10t-43 29.5t-29 47t-10.5 62.5q0 72 41.5 110t108.5 38q24 0 45 -5.5t38 -24.5
q0 27 -5.5 43.5t-15.5 25.5t-25.5 12.5t-34.5 3.5q-23 0 -39.5 -7.5t-29.5 -18.5l-37 63q20 22 50 34t67 12q69 0 111 -41.5t42 -113.5v-276h-82v37zM404 -138q-20 -7 -41 -7q-76 0 -76 146v16v10q0 9 1 12h43q-1 -2 -1 -10v-8v-12q0 -39 8 -66t38 -27q6 0 13.5 2t18.5 6
q-2 -17 -2.5 -32.5t-1.5 -29.5z" />
    <glyph glyph-name="scommaaccent" unicode="&#x15f;" horiz-adv-x="347" 
d="M57 107q21 -17 50.5 -23t57.5 -6q31 0 51.5 11.5t20.5 37.5q0 19 -14.5 33.5t-49.5 20.5q-28 5 -54 12.5t-46 22t-32 36.5t-12 57q0 32 11.5 55.5t32.5 38.5t49.5 22t62.5 7q67 0 112 -33l-25 -85q-20 20 -43 27t-52 7q-23 0 -42 -5.5t-22 -28.5q-3 -24 23 -36t71 -22
q51 -11 81.5 -39.5t30.5 -84.5q0 -37 -13 -63t-35.5 -42.5t-53 -24t-64.5 -7.5q-29 0 -61.5 8.5t-64.5 27.5zM178 39v-52q73 3 73 -61q1 -70 -75 -71q-18 -1 -31.5 1t-23.5 6l12 40q24 -6 48 -3q31 4 29 26q1 22 -29 23q-14 1 -39 -7v98h36z" />
    <glyph glyph-name="Lcaron" unicode="&#x13d;" horiz-adv-x="378" 
d="M47 554h82v-472h231v-82h-313v554zM167 384q20 5 29.5 17.5t11.5 39.5l-13 -1q-20 0 -31.5 16.5t-11.5 39.5t12.5 39.5t32.5 16.5q17 0 31 -16.5t14 -39.5t-4.5 -44.5t-13.5 -38.5t-23.5 -28t-33.5 -13v12z" />
    <glyph glyph-name="lcaron" unicode="&#x13e;" horiz-adv-x="228" 
d="M45 519l82 52v-571h-82v519zM159 388q20 5 29.5 17.5t11.5 39.5l-13 -1q-20 0 -31.5 16.5t-11.5 39.5t12.5 39.5t32.5 16.5q17 0 31 -16.5t14 -39.5t-4.5 -44.5t-13.5 -38.5t-23.5 -28t-33.5 -13v12z" />
    <glyph glyph-name="zdotaccent" unicode="&#x17c;" horiz-adv-x="369" 
d="M46 73l182 272h-173v82h279v-72l-183 -273h186v-82h-291v73zM203 457q-21 0 -34.5 17t-13.5 42t13.5 42t34.5 17q18 0 32.5 -17.5t14.5 -41.5q0 -25 -14 -42t-33 -17z" />
    <glyph glyph-name="Racute" unicode="&#x154;" horiz-adv-x="457" 
d="M129 472v-172h119q83 0 85 83q-2 89 -85 89h-119zM226 218h-97v-218h-82v554h195q78 3 125 -42t48 -126q0 -82 -48 -125q-24 -23 -57 -33l107 -228h-88zM187 583h-29l50 89h56z" />
    <glyph glyph-name="Abreve" unicode="&#x102;" horiz-adv-x="451" 
d="M148 195h154l-78 275zM283 554l163 -554h-88l-29 101h-207l-28 -101h-89l163 554h115zM223 582q-43 0 -65.5 22.5t-28.5 65.5h32q6 -26 21 -43.5t41 -17.5q24 0 39 17.5t21 43.5h35q-8 -43 -30.5 -65.5t-64.5 -22.5z" />
    <glyph glyph-name="Lacute" unicode="&#x139;" horiz-adv-x="378" 
d="M47 554h82v-472h231v-82h-313v554zM91 583h-29l50 89h56z" />
    <glyph glyph-name="Cacute" unicode="&#x106;" horiz-adv-x="482" 
d="M370 411q-22 29 -48.5 42.5t-60.5 13.5q-63 0 -100 -51.5t-37 -138.5q0 -41 10.5 -76t29 -60.5t44.5 -40t56 -14.5q29 0 58 14.5t48 34.5l71 -48q-61 -94 -180 -94q-49 0 -90 21.5t-71 59.5t-46.5 90t-16.5 113t15.5 112.5t44.5 89t70.5 59t93.5 21.5q127 0 185 -100z
M237 583h-29l50 89h56z" />
    <glyph glyph-name="Ccaron" unicode="&#x10c;" horiz-adv-x="482" 
d="M370 411q-22 29 -48.5 42.5t-60.5 13.5q-63 0 -100 -51.5t-37 -138.5q0 -41 10.5 -76t29 -60.5t44.5 -40t56 -14.5q29 0 58 14.5t48 34.5l71 -48q-61 -94 -180 -94q-49 0 -90 21.5t-71 59.5t-46.5 90t-16.5 113t15.5 112.5t44.5 89t70.5 59t93.5 21.5q127 0 185 -100z
M260 607l52 62h50l-74 -88h-55l-76 88h51z" />
    <glyph glyph-name="Eogonek" unicode="&#x118;" horiz-adv-x="385" 
d="M47 554h295v-82h-213v-147h133v-82h-133v-161h213v-82h-295v554zM264 -138q-20 -7 -41 -7q-76 0 -76 146v16v10q0 9 1 12h43q-1 -2 -1 -10v-8v-12q0 -39 8 -66t38 -27q6 0 13.5 2t18.5 6q-2 -17 -2.5 -32.5t-1.5 -29.5z" />
    <glyph glyph-name="Ecaron" unicode="&#x11a;" horiz-adv-x="385" 
d="M47 554h295v-82h-213v-147h133v-82h-133v-161h213v-82h-295v554zM186 607l52 62h50l-74 -88h-55l-76 88h51z" />
    <glyph glyph-name="Dcaron" unicode="&#x10e;" horiz-adv-x="497" 
d="M129 472v-389h55q42 0 77 14.5t61 40.5t40.5 62t14.5 78q0 43 -14.5 79t-40.5 61.5t-61 39.5t-77 14h-55zM47 0v554h155q57 0 104.5 -20.5t82 -57.5t53.5 -87t19 -110q0 -65 -20 -117t-55.5 -88t-83.5 -55t-105 -19h-150zM180 607l52 62h50l-74 -88h-55l-76 88h51z" />
    <glyph glyph-name="Dmacron" unicode="&#x110;" horiz-adv-x="497" 
d="M129 472v-389h55q42 0 77 14.5t61 40.5t40.5 62t14.5 78q0 43 -14.5 79t-40.5 61.5t-61 39.5t-77 14h-55zM47 0v554h155q57 0 104.5 -20.5t82 -57.5t53.5 -87t19 -110q0 -65 -20 -117t-55.5 -88t-83.5 -55t-105 -19h-150zM16 309h144v-82h-144v82z" />
    <glyph glyph-name="Nacute" unicode="&#x143;" horiz-adv-x="474" 
d="M126 412v-412h-82v554h102l201 -395v395h82v-554h-94zM210 583h-29l50 89h56z" />
    <glyph glyph-name="Ncaron" unicode="&#x147;" horiz-adv-x="474" 
d="M126 412v-412h-82v554h102l201 -395v395h82v-554h-94zM227 607l52 62h50l-74 -88h-55l-76 88h51z" />
    <glyph glyph-name="Ohungarumlaut" unicode="&#x150;" horiz-adv-x="521" 
d="M261 476q-63 0 -102 -49.5t-39 -149.5q0 -51 11 -88t30 -61.5t44.5 -36.5t55.5 -12q60 0 100.5 48.5t40.5 149.5q0 100 -37.5 149.5t-103.5 49.5zM261 -4q-94 0 -159 74q-62 74 -64 207q0 133 63 207q65 75 160 73q98 0 160 -74t62 -206q0 -131 -62 -208
q-61 -75 -160 -73zM173 581l77 91h55l-99 -91h-33zM263 581l77 91h55l-99 -91h-33z" />
    <glyph glyph-name="Rcaron" unicode="&#x158;" horiz-adv-x="457" 
d="M129 472v-172h119q83 0 85 83q-2 89 -85 89h-119zM226 218h-97v-218h-82v554h195q78 3 125 -42t48 -126q0 -82 -48 -125q-24 -23 -57 -33l107 -228h-88zM199 607l52 62h50l-74 -88h-55l-76 88h51z" />
    <glyph glyph-name="Uring" unicode="&#x16e;" horiz-adv-x="466" 
d="M236 -2q-91 0 -141.5 59t-50.5 168v329h82v-349q0 -69 29.5 -97t80.5 -28q49 0 76 28t27 97v349h83v-328q0 -109 -47.5 -168.5t-138.5 -59.5zM235 682q-15 0 -27 -12t-12 -29q0 -18 11.5 -29.5t27.5 -11.5q17 0 29 11.5t12 29.5q0 17 -12.5 29t-28.5 12zM234 579
q-26 0 -43 17t-17 43q0 27 17 45.5t43 18.5t43.5 -19t17.5 -45t-17.5 -43t-43.5 -17z" />
    <glyph glyph-name="Uhungarumlaut" unicode="&#x170;" horiz-adv-x="466" 
d="M236 -2q-91 0 -141.5 59t-50.5 168v329h82v-349q0 -69 29.5 -97t80.5 -28q49 0 76 28t27 97v349h83v-328q0 -109 -47.5 -168.5t-138.5 -59.5zM136 581l77 91h55l-99 -91h-33zM226 581l77 91h55l-99 -91h-33z" />
    <glyph glyph-name="Tcommaaccent" unicode="&#x162;" horiz-adv-x="437" 
d="M265 0h-91v472h-146v82h381v-82h-144v-472zM237 39v-52q73 3 73 -61q1 -70 -75 -71q-18 -1 -31.5 1t-23.5 6l12 40q24 -6 48 -3q31 4 29 26q1 22 -29 23q-14 1 -39 -7v98h36z" />
    <glyph glyph-name="racute" unicode="&#x155;" horiz-adv-x="269" 
d="M219 337q-20 11 -30 11q-32 0 -46 -24.5t-14 -60.5v-263h-82v427h82v-51q7 26 28.5 40t48.5 14q24 0 41 -11zM119 460h-29l50 89h56z" />
    <glyph glyph-name="abreve" unicode="&#x103;" horiz-adv-x="391" 
d="M263 178q0 8 -6.5 15.5t-16.5 13t-21 8.5t-21 3q-85 0 -85 -71q0 -30 22.5 -48.5t53.5 -18.5q10 0 22.5 3t24 8.5t19.5 13.5t8 19v54zM264 37q-10 -15 -36 -28t-63 -13q-28 0 -52.5 10t-43 29.5t-29 47t-10.5 62.5q0 72 41.5 110t108.5 38q24 0 45 -5.5t38 -24.5
q0 27 -5.5 43.5t-15.5 25.5t-25.5 12.5t-34.5 3.5q-23 0 -39.5 -7.5t-29.5 -18.5l-37 63q20 22 50 34t67 12q69 0 111 -41.5t42 -113.5v-276h-82v37zM197 459q-43 0 -65.5 22.5t-28.5 65.5h32q6 -26 21 -43.5t41 -17.5q24 0 39 17.5t21 43.5h35q-8 -43 -30.5 -65.5
t-64.5 -22.5z" />
    <glyph glyph-name="lacute" unicode="&#x13a;" horiz-adv-x="177" 
d="M45 519l82 52v-571h-82v519zM81 583h-29l50 89h56z" />
    <glyph glyph-name="cacute" unicode="&#x107;" horiz-adv-x="358" 
d="M201 -8q-41 0 -74 16t-55.5 45.5t-34.5 71t-12 92.5q0 47 13 87t36.5 69t55.5 45t71 16q38 0 67.5 -15t49.5 -39l-62 -53q-8 11 -20 17t-35 6q-43 0 -67.5 -37t-24.5 -97q0 -139 92 -139q37 0 61 26l68 -48q-51 -63 -129 -63zM186 460h-29l50 89h56z" />
    <glyph glyph-name="ccaron" unicode="&#x10d;" horiz-adv-x="358" 
d="M201 -8q-41 0 -74 16t-55.5 45.5t-34.5 71t-12 92.5q0 47 13 87t36.5 69t55.5 45t71 16q38 0 67.5 -15t49.5 -39l-62 -53q-8 11 -20 17t-35 6q-43 0 -67.5 -37t-24.5 -97q0 -139 92 -139q37 0 61 26l68 -48q-51 -63 -129 -63zM196 484l52 62h50l-74 -88h-55l-76 88h51z
" />
    <glyph glyph-name="eogonek" unicode="&#x119;" 
d="M205 358q-40 0 -65 -31.5t-27 -77.5h177q-2 46 -25 77.5t-60 31.5zM113 165q0 -20 8.5 -36t22 -27t30 -17t33.5 -6q22 0 38.5 6t28.5 21l55 -51q-24 -32 -55.5 -46t-69.5 -14q-88 1 -131.5 56.5t-43.5 158.5q0 52 12 94.5t35 72.5t56 46t74 16q76 0 122 -56.5t45 -165.5
q0 -12 -0.5 -24.5t-0.5 -25.5h-259v-2zM300 -138q-20 -7 -41 -7q-76 0 -76 146v16v10q0 9 1 12h43q-1 -2 -1 -10v-8v-12q0 -39 8 -66t38 -27q6 0 13.5 2t18.5 6q-2 -17 -2.5 -32.5t-1.5 -29.5z" />
    <glyph glyph-name="ecaron" unicode="&#x11b;" 
d="M205 358q-40 0 -65 -31.5t-27 -77.5h177q-2 46 -25 77.5t-60 31.5zM113 165q0 -20 8.5 -36t22 -27t30 -17t33.5 -6q22 0 38.5 6t28.5 21l55 -51q-24 -32 -55.5 -46t-69.5 -14q-88 1 -131.5 56.5t-43.5 158.5q0 52 12 94.5t35 72.5t56 46t74 16q76 0 122 -56.5t45 -165.5
q0 -12 -0.5 -24.5t-0.5 -25.5h-259v-2zM201 484l52 62h50l-74 -88h-55l-76 88h51z" />
    <glyph glyph-name="dcaron" unicode="&#x10f;" horiz-adv-x="479" 
d="M279 268q-6 24 -27.5 46.5t-52.5 22.5q-51 0 -72.5 -34t-21.5 -101q0 -54 23.5 -88t68.5 -34q27 0 51.5 16.5t30.5 50.5v121zM279 45q-15 -18 -37.5 -34t-54.5 -16q-36 0 -66 16t-51.5 44t-34 66.5t-12.5 82.5q0 47 12 88.5t33.5 72t50.5 48t64 17.5q32 0 56 -8.5
t40 -31.5v140l82 36v-565h-82v44zM392 388q20 5 29.5 17.5t11.5 39.5l-13 -1q-20 0 -31.5 16.5t-11.5 39.5t12.5 39.5t32.5 16.5q17 0 31 -16.5t14 -39.5t-4.5 -44.5t-13.5 -38.5t-23.5 -28t-33.5 -13v12z" />
    <glyph glyph-name="dmacron" unicode="&#x111;" horiz-adv-x="409" 
d="M279 268q-6 24 -27.5 46.5t-52.5 22.5q-51 0 -72.5 -34t-21.5 -101q0 -54 23.5 -88t68.5 -34q27 0 51.5 16.5t30.5 50.5v121zM279 45q-15 -18 -37.5 -34t-54.5 -16q-36 0 -66 16t-51.5 44t-34 66.5t-12.5 82.5q0 47 12 88.5t33.5 72t50.5 48t64 17.5q32 0 56 -8.5
t40 -31.5v140l82 36v-565h-82v44zM247 517h144v-82h-144v82z" />
    <glyph glyph-name="nacute" unicode="&#x144;" horiz-adv-x="407" 
d="M280 265q0 42 -19 63.5t-53 21.5t-56.5 -21.5t-22.5 -63.5v-265h-82v427h82v-53q15 29 42.5 43t64.5 14q57 0 91.5 -40.5t34.5 -109.5v-281h-82v265zM181 460h-29l50 89h56z" />
    <glyph glyph-name="ncaron" unicode="&#x148;" horiz-adv-x="407" 
d="M280 265q0 42 -19 63.5t-53 21.5t-56.5 -21.5t-22.5 -63.5v-265h-82v427h82v-53q15 29 42.5 43t64.5 14q57 0 91.5 -40.5t34.5 -109.5v-281h-82v265zM204 484l52 62h50l-74 -88h-55l-76 88h51z" />
    <glyph glyph-name="ohungarumlaut" unicode="&#x151;" 
d="M203 349q-43 0 -66 -38t-23 -99q0 -133 90 -133q89 0 89 133q0 137 -90 137zM203 -5q-81 0 -126 57.5t-45 160.5q0 46 12.5 86.5t35 70t54 46.5t69.5 17q39 0 70.5 -16.5t54 -46t35 -70t12.5 -87.5q0 -99 -45 -158.5t-127 -59.5zM107 458l77 91h55l-99 -91h-33zM197 458
l77 91h55l-99 -91h-33z" />
    <glyph glyph-name="rcaron" unicode="&#x159;" horiz-adv-x="269" 
d="M219 337q-20 11 -30 11q-32 0 -46 -24.5t-14 -60.5v-263h-82v427h82v-51q7 26 28.5 40t48.5 14q24 0 41 -11zM135 484l52 62h50l-74 -88h-55l-76 88h51z" />
    <glyph glyph-name="uring" unicode="&#x16f;" horiz-adv-x="409" 
d="M279 52q-16 -30 -45 -43.5t-63 -13.5q-57 0 -91.5 40.5t-34.5 109.5v282h82v-254q0 -42 18 -68t53 -26q34 0 57.5 26t23.5 68v254h82v-427h-82v52zM201 559q-15 0 -27 -12t-12 -29q0 -18 11.5 -29.5t27.5 -11.5q17 0 29 11.5t12 29.5q0 17 -12.5 29t-28.5 12zM200 456
q-26 0 -43 17t-17 43q0 27 17 45.5t43 18.5t43.5 -19t17.5 -45t-17.5 -43t-43.5 -17z" />
    <glyph glyph-name="uhungarumlaut" unicode="&#x171;" horiz-adv-x="409" 
d="M279 52q-16 -30 -45 -43.5t-63 -13.5q-57 0 -91.5 40.5t-34.5 109.5v282h82v-254q0 -42 18 -68t53 -26q34 0 57.5 26t23.5 68v254h82v-427h-82v52zM105 458l77 91h55l-99 -91h-33zM195 458l77 91h55l-99 -91h-33z" />
    <glyph glyph-name="tcommaaccent" unicode="&#x163;" horiz-adv-x="274" 
d="M231 1q-19 -4 -31 -5.5t-26 -1.5q-48 0 -74.5 36t-26.5 102v213h-45v82h45v77l82 46v-123h77v-82h-77v-183q0 -27 2.5 -43.5t8 -25.5t15 -12.5t23.5 -3.5q9 0 19 3t21 7zM176 39v-52q73 3 73 -61q1 -70 -75 -71q-18 -1 -31.5 1t-23.5 6l12 40q24 -6 48 -3q31 4 29 26
q1 22 -29 23q-14 1 -39 -7v98h36z" />
    <glyph glyph-name="Gbreve" unicode="&#x11e;" horiz-adv-x="510" 
d="M261 -6q-50 0 -91 21.5t-70.5 59.5t-45.5 89.5t-16 112.5q0 132 57.5 208t165.5 76q63 0 109 -23.5t78 -78.5l-80 -54q-15 30 -46.5 48.5t-60.5 18.5q-66 0 -101 -47.5t-35 -147.5q0 -43 9.5 -79t27.5 -62.5t43 -41.5t56 -15q45 0 78.5 30t36.5 87h-107v82h206v-36
q0 -48 -16.5 -92.5t-45 -79t-68 -55.5t-84.5 -21zM264 582q-43 0 -65.5 22.5t-28.5 65.5h32q6 -26 21 -43.5t41 -17.5q24 0 39 17.5t21 43.5h35q-8 -43 -30.5 -65.5t-64.5 -22.5z" />
    <glyph glyph-name="Idotaccent" unicode="&#x130;" horiz-adv-x="179" 
d="M47 554h82v-554h-82v554zM91 586q-21 0 -34.5 17t-13.5 42t13.5 42t34.5 17q18 0 32.5 -17.5t14.5 -41.5q0 -25 -14 -42t-33 -17z" />
    <glyph glyph-name="gbreve" unicode="&#x11f;" horiz-adv-x="399" 
d="M274 268q-1 22 -8 38t-17 25.5t-21.5 14t-21.5 4.5q-51 0 -73.5 -34t-22.5 -97q0 -66 20 -103t62 -37q38 0 60 19t22 54v116zM183 -97q89 21 89 130q-13 -19 -31.5 -28t-57.5 -9q-41 0 -70.5 17.5t-49 48t-29 71t-9.5 87.5q0 43 12.5 81.5t34 67t51 45t64.5 16.5
q27 0 48.5 -8t38.5 -28v33h82v-362q0 -48 -10.5 -90.5t-31 -75.5t-51 -55.5t-70.5 -29.5zM192 459q-43 0 -65.5 22.5t-28.5 65.5h32q6 -26 21 -43.5t41 -17.5q24 0 39 17.5t21 43.5h35q-8 -43 -30.5 -65.5t-64.5 -22.5z" />
    <glyph glyph-name="Rcommaaccent" unicode="&#x156;" horiz-adv-x="457" 
d="M129 472v-172h119q83 0 85 83q-2 89 -85 89h-119zM226 218h-97v-218h-82v554h195q78 3 125 -42t48 -126q0 -82 -48 -125q-24 -23 -57 -33l107 -228h-88zM216 39v-52q73 3 73 -61q1 -70 -75 -71q-18 -1 -31.5 1t-23.5 6l12 40q24 -6 48 -3q31 4 29 26q1 22 -29 23
q-14 1 -39 -7v98h36z" />
    <glyph glyph-name="rcommaaccent" unicode="&#x157;" horiz-adv-x="269" 
d="M219 337q-20 11 -30 11q-32 0 -46 -24.5t-14 -60.5v-263h-82v427h82v-51q7 26 28.5 40t48.5 14q24 0 41 -11zM104 39v-52q73 3 73 -61q1 -70 -75 -71q-18 -1 -31.5 1t-23.5 6l12 40q24 -6 48 -3q31 4 29 26q1 22 -29 23q-14 1 -39 -7v98h36z" />
    <glyph glyph-name="Iogonek" unicode="&#x12e;" horiz-adv-x="179" 
d="M47 554h82v-554h-82v554zM180 -138q-20 -7 -41 -7q-76 0 -76 146v16v10q0 9 1 12h43q-1 -2 -1 -10v-8v-12q0 -39 8 -66t38 -27q6 0 13.5 2t18.5 6q-2 -17 -2.5 -32.5t-1.5 -29.5z" />
    <glyph glyph-name="Amacron" unicode="&#x100;" horiz-adv-x="451" 
d="M148 195h154l-78 275zM283 554l163 -554h-88l-29 101h-207l-28 -101h-89l163 554h115zM122 640h200v-58h-200v58z" />
    <glyph glyph-name="Emacron" unicode="&#x112;" horiz-adv-x="385" 
d="M47 554h295v-82h-213v-147h133v-82h-133v-161h213v-82h-295v554zM101 640h200v-58h-200v58z" />
    <glyph glyph-name="Edotaccent" unicode="&#x116;" horiz-adv-x="385" 
d="M47 554h295v-82h-213v-147h133v-82h-133v-161h213v-82h-295v554zM200 586q-21 0 -34.5 17t-13.5 42t13.5 42t34.5 17q18 0 32.5 -17.5t14.5 -41.5q0 -25 -14 -42t-33 -17z" />
    <glyph glyph-name="Gcommaaccent" unicode="&#x122;" horiz-adv-x="510" 
d="M261 -6q-50 0 -91 21.5t-70.5 59.5t-45.5 89.5t-16 112.5q0 132 57.5 208t165.5 76q63 0 109 -23.5t78 -78.5l-80 -54q-15 30 -46.5 48.5t-60.5 18.5q-66 0 -101 -47.5t-35 -147.5q0 -43 9.5 -79t27.5 -62.5t43 -41.5t56 -15q45 0 78.5 30t36.5 87h-107v82h206v-36
q0 -48 -16.5 -92.5t-45 -79t-68 -55.5t-84.5 -21zM277 39v-52q73 3 73 -61q1 -70 -75 -71q-18 -1 -31.5 1t-23.5 6l12 40q24 -6 48 -3q31 4 29 26q1 22 -29 23q-14 1 -39 -7v98h36z" />
    <glyph glyph-name="Kcommaaccent" unicode="&#x136;" horiz-adv-x="475" 
d="M209 232l-80 -119v-113h-82v554h82v-298l196 298h99l-161 -240l173 -314h-94zM221 39v-52q73 3 73 -61q1 -70 -75 -71q-18 -1 -31.5 1t-23.5 6l12 40q24 -6 48 -3q31 4 29 26q1 22 -29 23q-14 1 -39 -7v98h36z" />
    <glyph glyph-name="Imacron" unicode="&#x12a;" horiz-adv-x="179" 
d="M47 554h82v-554h-82v554zM-8 640h200v-58h-200v58z" />
    <glyph glyph-name="Lcommaaccent" unicode="&#x13b;" horiz-adv-x="378" 
d="M47 554h82v-472h231v-82h-313v554zM200 39v-52q73 3 73 -61q1 -70 -75 -71q-18 -1 -31.5 1t-23.5 6l12 40q24 -6 48 -3q31 4 29 26q1 22 -29 23q-14 1 -39 -7v98h36z" />
    <glyph glyph-name="Ncommaaccent" unicode="&#x145;" horiz-adv-x="474" 
d="M126 412v-412h-82v554h102l201 -395v395h82v-554h-94zM224 39v-52q73 3 73 -61q1 -70 -75 -71q-18 -1 -31.5 1t-23.5 6l12 40q24 -6 48 -3q31 4 29 26q1 22 -29 23q-14 1 -39 -7v98h36z" />
    <glyph glyph-name="Omacron" unicode="&#x14c;" horiz-adv-x="521" 
d="M261 476q-63 0 -102 -49.5t-39 -149.5q0 -51 11 -88t30 -61.5t44.5 -36.5t55.5 -12q60 0 100.5 48.5t40.5 149.5q0 100 -37.5 149.5t-103.5 49.5zM261 -4q-94 0 -159 74q-62 74 -64 207q0 133 63 207q65 75 160 73q98 0 160 -74t62 -206q0 -131 -62 -208
q-61 -75 -160 -73zM165 640h200v-58h-200v58z" />
    <glyph glyph-name="Uogonek" unicode="&#x172;" horiz-adv-x="466" 
d="M236 -2q-91 0 -141.5 59t-50.5 168v329h82v-349q0 -69 29.5 -97t80.5 -28q49 0 76 28t27 97v349h83v-328q0 -109 -47.5 -168.5t-138.5 -59.5zM332 -138q-20 -7 -41 -7q-76 0 -76 146v16v10q0 9 1 12h43q-1 -2 -1 -10v-8v-12q0 -39 8 -66t38 -27q6 0 13.5 2t18.5 6
q-2 -17 -2.5 -32.5t-1.5 -29.5z" />
    <glyph glyph-name="Umacron" unicode="&#x16a;" horiz-adv-x="466" 
d="M236 -2q-91 0 -141.5 59t-50.5 168v329h82v-349q0 -69 29.5 -97t80.5 -28q49 0 76 28t27 97v349h83v-328q0 -109 -47.5 -168.5t-138.5 -59.5zM136 640h200v-58h-200v58z" />
    <glyph glyph-name="iogonek" unicode="&#x12f;" horiz-adv-x="177" 
d="M47 427h82v-427h-82v427zM88 471q-21 0 -33.5 16t-12.5 39q0 24 12 40t34 16q19 0 32.5 -16t13.5 -40q0 -23 -14 -39t-32 -16zM184 -138q-20 -7 -41 -7q-76 0 -76 146v16v10q0 9 1 12h43q-1 -2 -1 -10v-8v-12q0 -39 8 -66t38 -27q6 0 13.5 2t18.5 6q-2 -17 -2.5 -32.5
t-1.5 -29.5z" />
    <glyph glyph-name="amacron" unicode="&#x101;" horiz-adv-x="391" 
d="M263 178q0 8 -6.5 15.5t-16.5 13t-21 8.5t-21 3q-85 0 -85 -71q0 -30 22.5 -48.5t53.5 -18.5q10 0 22.5 3t24 8.5t19.5 13.5t8 19v54zM264 37q-10 -15 -36 -28t-63 -13q-28 0 -52.5 10t-43 29.5t-29 47t-10.5 62.5q0 72 41.5 110t108.5 38q24 0 45 -5.5t38 -24.5
q0 27 -5.5 43.5t-15.5 25.5t-25.5 12.5t-34.5 3.5q-23 0 -39.5 -7.5t-29.5 -18.5l-37 63q20 22 50 34t67 12q69 0 111 -41.5t42 -113.5v-276h-82v37zM95 517h200v-58h-200v58z" />
    <glyph glyph-name="emacron" unicode="&#x113;" 
d="M205 358q-40 0 -65 -31.5t-27 -77.5h177q-2 46 -25 77.5t-60 31.5zM113 165q0 -20 8.5 -36t22 -27t30 -17t33.5 -6q22 0 38.5 6t28.5 21l55 -51q-24 -32 -55.5 -46t-69.5 -14q-88 1 -131.5 56.5t-43.5 158.5q0 52 12 94.5t35 72.5t56 46t74 16q76 0 122 -56.5t45 -165.5
q0 -12 -0.5 -24.5t-0.5 -25.5h-259v-2zM103 517h200v-58h-200v58z" />
    <glyph glyph-name="edotaccent" unicode="&#x117;" 
d="M205 358q-40 0 -65 -31.5t-27 -77.5h177q-2 46 -25 77.5t-60 31.5zM113 165q0 -20 8.5 -36t22 -27t30 -17t33.5 -6q22 0 38.5 6t28.5 21l55 -51q-24 -32 -55.5 -46t-69.5 -14q-88 1 -131.5 56.5t-43.5 158.5q0 52 12 94.5t35 72.5t56 46t74 16q76 0 122 -56.5t45 -165.5
q0 -12 -0.5 -24.5t-0.5 -25.5h-259v-2zM206 458q-21 0 -34.5 17t-13.5 42t13.5 42t34.5 17q18 0 32.5 -17.5t14.5 -41.5q0 -25 -14 -42t-33 -17z" />
    <glyph glyph-name="gcommaaccent" unicode="&#x123;" horiz-adv-x="399" 
d="M274 268q-1 22 -8 38t-17 25.5t-21.5 14t-21.5 4.5q-51 0 -73.5 -34t-22.5 -97q0 -66 20 -103t62 -37q38 0 60 19t22 54v116zM183 -97q89 21 89 130q-13 -19 -31.5 -28t-57.5 -9q-41 0 -70.5 17.5t-49 48t-29 71t-9.5 87.5q0 43 12.5 81.5t34 67t51 45t64.5 16.5
q27 0 48.5 -8t38.5 -28v33h82v-362q0 -48 -10.5 -90.5t-31 -75.5t-51 -55.5t-70.5 -29.5zM189 435q-20 0 -32 16.5t-12 39.5q0 115 71 123v-15q-18 -4 -27.5 -14.5t-11.5 -38.5l15 1q16 0 29.5 -17.5t13.5 -38.5q0 -23 -14 -39.5t-32 -16.5z" />
    <glyph glyph-name="kcommaaccent" unicode="&#x137;" horiz-adv-x="385" 
d="M174 199l-45 -54v-145h-82v522l82 49v-302l115 139h105l-116 -144l132 -264h-92zM198 39v-52q73 3 73 -61q1 -70 -75 -71q-18 -1 -31.5 1t-23.5 6l12 40q24 -6 48 -3q31 4 29 26q1 22 -29 23q-14 1 -39 -7v98h36z" />
    <glyph glyph-name="imacron" unicode="&#x12b;" horiz-adv-x="179" 
d="M47 427h82v-427h-82v427zM-7 517h200v-58h-200v58z" />
    <glyph glyph-name="lcommaaccent" unicode="&#x13c;" horiz-adv-x="177" 
d="M45 519l82 52v-571h-82v519zM99 39v-52q73 3 73 -61q1 -70 -75 -71q-18 -1 -31.5 1t-23.5 6l12 40q24 -6 48 -3q31 4 29 26q1 22 -29 23q-14 1 -39 -7v98h36z" />
    <glyph glyph-name="ncommaaccent" unicode="&#x146;" horiz-adv-x="407" 
d="M280 265q0 42 -19 63.5t-53 21.5t-56.5 -21.5t-22.5 -63.5v-265h-82v427h82v-53q15 29 42.5 43t64.5 14q57 0 91.5 -40.5t34.5 -109.5v-281h-82v265zM213 39v-52q73 3 73 -61q1 -70 -75 -71q-18 -1 -31.5 1t-23.5 6l12 40q24 -6 48 -3q31 4 29 26q1 22 -29 23
q-14 1 -39 -7v98h36z" />
    <glyph glyph-name="omacron" unicode="&#x14d;" 
d="M203 349q-43 0 -66 -38t-23 -99q0 -133 90 -133q89 0 89 133q0 137 -90 137zM203 -5q-81 0 -126 57.5t-45 160.5q0 46 12.5 86.5t35 70t54 46.5t69.5 17q39 0 70.5 -16.5t54 -46t35 -70t12.5 -87.5q0 -99 -45 -158.5t-127 -59.5zM104 517h200v-58h-200v58z" />
    <glyph glyph-name="uogonek" unicode="&#x173;" horiz-adv-x="409" 
d="M279 52q-16 -30 -45 -43.5t-63 -13.5q-57 0 -91.5 40.5t-34.5 109.5v282h82v-254q0 -42 18 -68t53 -26q34 0 57.5 26t23.5 68v254h82v-427h-82v52zM414 -138q-20 -7 -41 -7q-76 0 -76 146v16v10q0 9 1 12h43q-1 -2 -1 -10v-8v-12q0 -39 8 -66t38 -27q6 0 13.5 2t18.5 6
q-2 -17 -2.5 -32.5t-1.5 -29.5z" />
    <glyph glyph-name="umacron" unicode="&#x16b;" horiz-adv-x="409" 
d="M279 52q-16 -30 -45 -43.5t-63 -13.5q-57 0 -91.5 40.5t-34.5 109.5v282h82v-254q0 -42 18 -68t53 -26q34 0 57.5 26t23.5 68v254h82v-427h-82v52zM100 517h200v-58h-200v58z" />
    <glyph glyph-name="logicalnot" unicode="&#xac;" horiz-adv-x="389" 
d="M237 470l124 -150l-93 -113l-123 150l-50 -92l-4.5 -7.5t-4.5 -2.5q-6 0 -9.5 6t-4.5 14l-37 332l269 -47q6 -1 11.5 -4.5t5.5 -11.5t-8 -13z" />
    </font>
</defs>
</svg>
